<svg width="153" height="182" viewBox="0 0 153 182" fill="none" xmlns="http://www.w3.org/2000/svg">
<rect width="153" height="182" rx="20" fill="url(#paint0_linear_239_659)"/>
<path d="M43.875 51.9373C43.875 40.9118 51.1902 30.6875 61.2079 30.6875C68.1589 30.6875 73.3154 35.2731 76.5 41.7818C79.6828 35.2749 84.8411 30.6875 91.7939 30.6875C101.812 30.6875 109.125 40.9136 109.125 51.9373C109.123 53.8609 108.911 55.7785 108.491 57.6557C106.708 55.4572 104.456 53.685 101.9 52.4686C99.3446 51.2521 96.5493 50.6223 93.7188 50.625C83.2081 50.625 74.6875 59.1456 74.6875 69.6562C74.6867 73.2283 75.6912 76.7285 77.5861 79.7565C79.4811 82.7845 82.19 85.2181 85.403 86.7789C80.3479 90.3332 76.5 92.3125 76.5 92.3125C76.5 92.3125 43.875 76.551 43.875 51.9373Z" fill="white"/>
<path d="M98.25 70.5625C98.2492 71.0648 98.1441 71.5614 97.9413 72.021C97.7385 72.4805 97.4424 72.8928 97.0718 73.2319C96.7012 73.5709 96.2642 73.8292 95.7885 73.9904C95.3128 74.1517 94.8088 74.2123 94.3084 74.1684C93.8081 74.1245 93.3223 73.9772 92.8819 73.7356C92.4415 73.4941 92.0561 73.1637 91.7501 72.7654C91.4441 72.367 91.2243 71.9095 91.1045 71.4217C90.9848 70.9339 90.9677 70.4265 91.0543 69.9318L86.6681 65.5455L89.2328 62.9826L93.3997 67.1514C93.7852 67.0088 94.1936 66.9375 94.625 66.9375C95.5864 66.9375 96.5084 67.3194 97.1882 67.9992C97.868 68.6791 98.25 69.6011 98.25 70.5625Z" fill="white"/>
<path fill-rule="evenodd" clip-rule="evenodd" d="M109.125 69.6562C109.125 73.7422 107.502 77.6609 104.613 80.5501C101.723 83.4393 97.8047 85.0625 93.7188 85.0625C89.6328 85.0625 85.7141 83.4393 82.8249 80.5501C79.9357 77.6609 78.3125 73.7422 78.3125 69.6562C78.3125 65.5703 79.9357 61.6516 82.8249 58.7624C85.7141 55.8732 89.6328 54.25 93.7188 54.25C97.8047 54.25 101.723 55.8732 104.613 58.7624C107.502 61.6516 109.125 65.5703 109.125 69.6562ZM105.5 69.6562C105.5 72.7808 104.259 75.7774 102.049 77.9869C99.8399 80.1963 96.8433 81.4375 93.7188 81.4375C90.5942 81.4375 87.5976 80.1963 85.3881 77.9869C83.1787 75.7774 81.9375 72.7808 81.9375 69.6562C81.9375 66.5317 83.1787 63.5351 85.3881 61.3256C87.5976 59.1162 90.5942 57.875 93.7188 57.875C96.8433 57.875 99.8399 59.1162 102.049 61.3256C104.259 63.5351 105.5 66.5317 105.5 69.6562Z" fill="white"/>
<path d="M12.98 136V125.92H16.907C17.509 125.92 18.0223 126.044 18.447 126.291C18.8763 126.538 19.203 126.865 19.427 127.271C19.6557 127.672 19.77 128.106 19.77 128.573C19.77 129.119 19.63 129.597 19.35 130.008C19.07 130.419 18.692 130.701 18.216 130.855L18.202 130.512C18.8507 130.685 19.3547 131.002 19.714 131.464C20.0733 131.926 20.253 132.477 20.253 133.116C20.253 133.704 20.1317 134.213 19.889 134.642C19.651 135.071 19.3057 135.405 18.853 135.643C18.405 135.881 17.873 136 17.257 136H12.98ZM14.24 134.81H17.019C17.3923 134.81 17.726 134.742 18.02 134.607C18.314 134.467 18.545 134.271 18.713 134.019C18.8857 133.767 18.972 133.464 18.972 133.109C18.972 132.768 18.895 132.463 18.741 132.192C18.5917 131.921 18.3793 131.707 18.104 131.548C17.8333 131.385 17.5183 131.303 17.159 131.303H14.24V134.81ZM14.24 130.127H16.893C17.1917 130.127 17.46 130.064 17.698 129.938C17.9407 129.807 18.132 129.625 18.272 129.392C18.4167 129.159 18.489 128.886 18.489 128.573C18.489 128.139 18.342 127.784 18.048 127.509C17.754 127.234 17.369 127.096 16.893 127.096H14.24V130.127ZM21.788 136V125.71H23.034V136H21.788ZM28.3543 136.21C27.603 136.21 26.9543 136.04 26.4083 135.699C25.867 135.358 25.4493 134.887 25.1553 134.285C24.8613 133.683 24.7143 132.992 24.7143 132.213C24.7143 131.42 24.8636 130.724 25.1623 130.127C25.461 129.53 25.8833 129.065 26.4293 128.734C26.9753 128.398 27.617 128.23 28.3543 128.23C29.1103 128.23 29.7613 128.4 30.3073 128.741C30.8533 129.077 31.271 129.546 31.5603 130.148C31.8543 130.745 32.0013 131.434 32.0013 132.213C32.0013 133.002 31.8543 133.697 31.5603 134.299C31.2663 134.896 30.8463 135.365 30.3003 135.706C29.7543 136.042 29.1056 136.21 28.3543 136.21ZM28.3543 135.027C29.1383 135.027 29.7216 134.766 30.1043 134.243C30.487 133.72 30.6783 133.044 30.6783 132.213C30.6783 131.359 30.4846 130.68 30.0973 130.176C29.71 129.667 29.129 129.413 28.3543 129.413C27.827 129.413 27.393 129.532 27.0523 129.77C26.7116 130.008 26.4573 130.337 26.2893 130.757C26.1213 131.177 26.0373 131.662 26.0373 132.213C26.0373 133.062 26.2333 133.744 26.6253 134.257C27.0173 134.77 27.5936 135.027 28.3543 135.027ZM36.7625 136.21C36.0112 136.21 35.3625 136.04 34.8165 135.699C34.2752 135.358 33.8575 134.887 33.5635 134.285C33.2695 133.683 33.1225 132.992 33.1225 132.213C33.1225 131.42 33.2718 130.724 33.5705 130.127C33.8692 129.53 34.2915 129.065 34.8375 128.734C35.3835 128.398 36.0252 128.23 36.7625 128.23C37.5185 128.23 38.1695 128.4 38.7155 128.741C39.2615 129.077 39.6792 129.546 39.9685 130.148C40.2625 130.745 40.4095 131.434 40.4095 132.213C40.4095 133.002 40.2625 133.697 39.9685 134.299C39.6745 134.896 39.2545 135.365 38.7085 135.706C38.1625 136.042 37.5138 136.21 36.7625 136.21ZM36.7625 135.027C37.5465 135.027 38.1298 134.766 38.5125 134.243C38.8952 133.72 39.0865 133.044 39.0865 132.213C39.0865 131.359 38.8928 130.68 38.5055 130.176C38.1182 129.667 37.5372 129.413 36.7625 129.413C36.2352 129.413 35.8012 129.532 35.4605 129.77C35.1198 130.008 34.8655 130.337 34.6975 130.757C34.5295 131.177 34.4455 131.662 34.4455 132.213C34.4455 133.062 34.6415 133.744 35.0335 134.257C35.4255 134.77 36.0018 135.027 36.7625 135.027ZM44.9187 136.21C44.214 136.21 43.6097 136.035 43.1057 135.685C42.6017 135.33 42.212 134.852 41.9367 134.25C41.666 133.648 41.5307 132.969 41.5307 132.213C41.5307 131.457 41.666 130.778 41.9367 130.176C42.212 129.574 42.6017 129.1 43.1057 128.755C43.6097 128.405 44.2117 128.23 44.9117 128.23C45.6257 128.23 46.2254 128.403 46.7107 128.748C47.196 129.093 47.5624 129.567 47.8097 130.169C48.0617 130.771 48.1877 131.452 48.1877 132.213C48.1877 132.964 48.0617 133.643 47.8097 134.25C47.5624 134.852 47.196 135.33 46.7107 135.685C46.2254 136.035 45.628 136.21 44.9187 136.21ZM45.0727 135.069C45.5814 135.069 45.999 134.948 46.3257 134.705C46.6524 134.458 46.8927 134.119 47.0467 133.69C47.2054 133.256 47.2847 132.764 47.2847 132.213C47.2847 131.653 47.2054 131.161 47.0467 130.736C46.8927 130.307 46.6547 129.973 46.3327 129.735C46.0107 129.492 45.6024 129.371 45.1077 129.371C44.5944 129.371 44.1697 129.497 43.8337 129.749C43.5024 130.001 43.255 130.342 43.0917 130.771C42.933 131.2 42.8537 131.681 42.8537 132.213C42.8537 132.75 42.9354 133.235 43.0987 133.669C43.262 134.098 43.507 134.439 43.8337 134.691C44.165 134.943 44.578 135.069 45.0727 135.069ZM47.2847 136V130.435H47.1447V125.92H48.3977V136H47.2847ZM53.1616 136V125.92H57.1446C57.2426 125.92 57.3593 125.925 57.4946 125.934C57.63 125.939 57.7606 125.953 57.8866 125.976C58.4326 126.06 58.89 126.247 59.2586 126.536C59.632 126.825 59.912 127.192 60.0986 127.635C60.2853 128.074 60.3786 128.561 60.3786 129.098C60.3786 129.63 60.283 130.118 60.0916 130.561C59.905 131 59.625 131.366 59.2516 131.66C58.883 131.949 58.428 132.136 57.8866 132.22C57.7606 132.239 57.63 132.253 57.4946 132.262C57.3593 132.271 57.2426 132.276 57.1446 132.276H54.4076V136H53.1616ZM54.4076 131.093H57.1026C57.1913 131.093 57.2916 131.088 57.4036 131.079C57.5203 131.07 57.63 131.053 57.7326 131.03C58.0546 130.955 58.316 130.82 58.5166 130.624C58.722 130.423 58.8713 130.19 58.9646 129.924C59.058 129.653 59.1046 129.378 59.1046 129.098C59.1046 128.818 59.058 128.545 58.9646 128.279C58.8713 128.008 58.722 127.773 58.5166 127.572C58.316 127.371 58.0546 127.236 57.7326 127.166C57.63 127.138 57.5203 127.122 57.4036 127.117C57.2916 127.108 57.1913 127.103 57.1026 127.103H54.4076V131.093ZM61.7749 136V128.44H62.8879V130.267L62.7059 130.029C62.7946 129.796 62.9089 129.581 63.0489 129.385C63.1936 129.189 63.3546 129.028 63.5319 128.902C63.7279 128.743 63.9496 128.622 64.1969 128.538C64.4443 128.454 64.6963 128.405 64.9529 128.391C65.2096 128.372 65.4499 128.389 65.6739 128.44V129.609C65.4126 129.539 65.1256 129.52 64.8129 129.553C64.5003 129.586 64.2109 129.7 63.9449 129.896C63.7023 130.069 63.5133 130.279 63.3779 130.526C63.2473 130.773 63.1563 131.042 63.1049 131.331C63.0536 131.616 63.0279 131.907 63.0279 132.206V136H61.7749ZM70.1369 136.21C69.3949 136.21 68.7462 136.047 68.1909 135.72C67.6402 135.389 67.2109 134.929 66.9029 134.341C66.5949 133.748 66.4409 133.058 66.4409 132.269C66.4409 131.443 66.5925 130.729 66.8959 130.127C67.1992 129.52 67.6215 129.054 68.1629 128.727C68.7089 128.396 69.3482 128.23 70.0809 128.23C70.8415 128.23 71.4879 128.405 72.0199 128.755C72.5565 129.105 72.9579 129.604 73.2239 130.253C73.4945 130.902 73.6112 131.674 73.5739 132.57H72.3139V132.122C72.2999 131.193 72.1109 130.5 71.7469 130.043C71.3829 129.581 70.8415 129.35 70.1229 129.35C69.3529 129.35 68.7672 129.597 68.3659 130.092C67.9645 130.587 67.7639 131.296 67.7639 132.22C67.7639 133.111 67.9645 133.802 68.3659 134.292C68.7672 134.782 69.3389 135.027 70.0809 135.027C70.5802 135.027 71.0142 134.913 71.3829 134.684C71.7515 134.455 72.0409 134.126 72.2509 133.697L73.4479 134.11C73.1539 134.777 72.7105 135.295 72.1179 135.664C71.5299 136.028 70.8695 136.21 70.1369 136.21ZM67.3439 132.57V131.569H72.9299V132.57H67.3439ZM77.9883 136.203C77.0877 136.203 76.348 136.007 75.7693 135.615C75.1953 135.218 74.843 134.665 74.7123 133.956L75.9863 133.753C76.089 134.164 76.3247 134.49 76.6933 134.733C77.062 134.971 77.5193 135.09 78.0653 135.09C78.5833 135.09 78.9893 134.983 79.2833 134.768C79.5773 134.553 79.7243 134.262 79.7243 133.893C79.7243 133.678 79.6753 133.506 79.5773 133.375C79.4793 133.24 79.2763 133.114 78.9683 132.997C78.665 132.88 78.2053 132.74 77.5893 132.577C76.922 132.4 76.397 132.215 76.0143 132.024C75.6317 131.833 75.3587 131.611 75.1953 131.359C75.032 131.107 74.9503 130.801 74.9503 130.442C74.9503 129.999 75.0717 129.611 75.3143 129.28C75.557 128.944 75.8953 128.685 76.3293 128.503C76.768 128.321 77.2767 128.23 77.8553 128.23C78.4293 128.23 78.9427 128.321 79.3953 128.503C79.848 128.685 80.212 128.944 80.4873 129.28C80.7673 129.611 80.933 129.999 80.9843 130.442L79.7103 130.673C79.6497 130.267 79.4537 129.947 79.1223 129.714C78.7957 129.481 78.3733 129.357 77.8553 129.343C77.3653 129.324 76.9663 129.411 76.6583 129.602C76.355 129.793 76.2033 130.052 76.2033 130.379C76.2033 130.561 76.2593 130.717 76.3713 130.848C76.488 130.979 76.7003 131.102 77.0083 131.219C77.321 131.336 77.7737 131.469 78.3663 131.618C79.0337 131.786 79.5587 131.97 79.9413 132.171C80.3287 132.367 80.604 132.6 80.7673 132.871C80.9307 133.137 81.0123 133.466 81.0123 133.858C81.0123 134.586 80.744 135.16 80.2073 135.58C79.6707 135.995 78.931 136.203 77.9883 136.203ZM85.4122 136.203C84.5115 136.203 83.7718 136.007 83.1932 135.615C82.6192 135.218 82.2668 134.665 82.1362 133.956L83.4102 133.753C83.5128 134.164 83.7485 134.49 84.1172 134.733C84.4858 134.971 84.9432 135.09 85.4892 135.09C86.0072 135.09 86.4132 134.983 86.7072 134.768C87.0012 134.553 87.1482 134.262 87.1482 133.893C87.1482 133.678 87.0992 133.506 87.0012 133.375C86.9032 133.24 86.7002 133.114 86.3922 132.997C86.0888 132.88 85.6292 132.74 85.0132 132.577C84.3458 132.4 83.8208 132.215 83.4382 132.024C83.0555 131.833 82.7825 131.611 82.6192 131.359C82.4558 131.107 82.3742 130.801 82.3742 130.442C82.3742 129.999 82.4955 129.611 82.7382 129.28C82.9808 128.944 83.3192 128.685 83.7532 128.503C84.1918 128.321 84.7005 128.23 85.2792 128.23C85.8532 128.23 86.3665 128.321 86.8192 128.503C87.2718 128.685 87.6358 128.944 87.9112 129.28C88.1912 129.611 88.3568 129.999 88.4082 130.442L87.1342 130.673C87.0735 130.267 86.8775 129.947 86.5462 129.714C86.2195 129.481 85.7972 129.357 85.2792 129.343C84.7892 129.324 84.3902 129.411 84.0822 129.602C83.7788 129.793 83.6272 130.052 83.6272 130.379C83.6272 130.561 83.6832 130.717 83.7952 130.848C83.9118 130.979 84.1242 131.102 84.4322 131.219C84.7448 131.336 85.1975 131.469 85.7902 131.618C86.4575 131.786 86.9825 131.97 87.3652 132.171C87.7525 132.367 88.0278 132.6 88.1912 132.871C88.3545 133.137 88.4362 133.466 88.4362 133.858C88.4362 134.586 88.1678 135.16 87.6312 135.58C87.0945 135.995 86.3548 136.203 85.4122 136.203ZM92.85 136.196C92.3647 136.196 91.947 136.119 91.597 135.965C91.2517 135.811 90.9647 135.606 90.736 135.349C90.5073 135.092 90.3277 134.808 90.197 134.495C90.0663 134.182 89.973 133.863 89.917 133.536C89.8657 133.209 89.84 132.904 89.84 132.619V128.44H91.1V132.227C91.1 132.582 91.1327 132.925 91.198 133.256C91.2633 133.587 91.373 133.886 91.527 134.152C91.6857 134.418 91.8957 134.628 92.157 134.782C92.423 134.936 92.7543 135.013 93.151 135.013C93.4637 135.013 93.7483 134.959 94.005 134.852C94.2617 134.745 94.481 134.586 94.663 134.376C94.845 134.161 94.985 133.891 95.083 133.564C95.181 133.237 95.23 132.857 95.23 132.423L96.049 132.675C96.049 133.403 95.916 134.031 95.65 134.558C95.3887 135.085 95.0177 135.491 94.537 135.776C94.061 136.056 93.4987 136.196 92.85 136.196ZM95.37 136V133.977H95.23V128.44H96.483V136H95.37ZM98.4429 136V128.44H99.5559V130.267L99.3739 130.029C99.4626 129.796 99.5769 129.581 99.7169 129.385C99.8616 129.189 100.023 129.028 100.2 128.902C100.396 128.743 100.618 128.622 100.865 128.538C101.112 128.454 101.364 128.405 101.621 128.391C101.878 128.372 102.118 128.389 102.342 128.44V129.609C102.081 129.539 101.794 129.52 101.481 129.553C101.168 129.586 100.879 129.7 100.613 129.896C100.37 130.069 100.181 130.279 100.046 130.526C99.9152 130.773 99.8242 131.042 99.7729 131.331C99.7216 131.616 99.6959 131.907 99.6959 132.206V136H98.4429ZM106.805 136.21C106.063 136.21 105.414 136.047 104.859 135.72C104.308 135.389 103.879 134.929 103.571 134.341C103.263 133.748 103.109 133.058 103.109 132.269C103.109 131.443 103.26 130.729 103.564 130.127C103.867 129.52 104.289 129.054 104.831 128.727C105.377 128.396 106.016 128.23 106.749 128.23C107.509 128.23 108.156 128.405 108.688 128.755C109.224 129.105 109.626 129.604 109.892 130.253C110.162 130.902 110.279 131.674 110.242 132.57H108.982V132.122C108.968 131.193 108.779 130.5 108.415 130.043C108.051 129.581 107.509 129.35 106.791 129.35C106.021 129.35 105.435 129.597 105.034 130.092C104.632 130.587 104.432 131.296 104.432 132.22C104.432 133.111 104.632 133.802 105.034 134.292C105.435 134.782 106.007 135.027 106.749 135.027C107.248 135.027 107.682 134.913 108.051 134.684C108.419 134.455 108.709 134.126 108.919 133.697L110.116 134.11C109.822 134.777 109.378 135.295 108.786 135.664C108.198 136.028 107.537 136.21 106.805 136.21ZM104.012 132.57V131.569H109.598V132.57H104.012Z" fill="black"/>
<path d="M14.737 162V153.299L12.84 154.447V153.054L14.737 151.92H16.004V162H14.737ZM18.3875 161.993L18.3945 160.873L22.8675 156.848C23.2408 156.512 23.4905 156.195 23.6165 155.896C23.7472 155.593 23.8125 155.282 23.8125 154.965C23.8125 154.578 23.7238 154.228 23.5465 153.915C23.3692 153.602 23.1265 153.355 22.8185 153.173C22.5152 152.991 22.1698 152.9 21.7825 152.9C21.3812 152.9 21.0242 152.996 20.7115 153.187C20.3988 153.374 20.1515 153.623 19.9695 153.936C19.7922 154.249 19.7058 154.589 19.7105 154.958H18.4365C18.4365 154.323 18.5835 153.763 18.8775 153.278C19.1715 152.788 19.5705 152.405 20.0745 152.13C20.5832 151.85 21.1595 151.71 21.8035 151.71C22.4288 151.71 22.9888 151.855 23.4835 152.144C23.9782 152.429 24.3678 152.818 24.6525 153.313C24.9418 153.803 25.0865 154.358 25.0865 154.979C25.0865 155.418 25.0305 155.798 24.9185 156.12C24.8112 156.442 24.6432 156.741 24.4145 157.016C24.1858 157.287 23.8988 157.576 23.5535 157.884L19.8365 161.223L19.6755 160.803H25.0865V161.993H18.3875ZM30.1633 162.21C29.5099 162.21 28.9266 162.063 28.4133 161.769C27.9046 161.47 27.5009 161.067 27.2023 160.558C26.9083 160.045 26.7613 159.461 26.7613 158.808V155.112C26.7613 154.459 26.9083 153.875 27.2023 153.362C27.5009 152.849 27.9046 152.445 28.4133 152.151C28.9266 151.857 29.5099 151.71 30.1633 151.71C30.8166 151.71 31.3999 151.857 31.9133 152.151C32.4266 152.445 32.8303 152.849 33.1243 153.362C33.4183 153.875 33.5653 154.459 33.5653 155.112V158.808C33.5653 159.461 33.4183 160.045 33.1243 160.558C32.8303 161.067 32.4266 161.47 31.9133 161.769C31.3999 162.063 30.8166 162.21 30.1633 162.21ZM30.1633 161.013C30.5599 161.013 30.9193 160.917 31.2413 160.726C31.5633 160.535 31.8199 160.278 32.0113 159.956C32.2026 159.629 32.2983 159.27 32.2983 158.878V155.035C32.2983 154.638 32.2026 154.279 32.0113 153.957C31.8199 153.635 31.5633 153.378 31.2413 153.187C30.9193 152.996 30.5599 152.9 30.1633 152.9C29.7713 152.9 29.4119 152.996 29.0853 153.187C28.7633 153.378 28.5066 153.635 28.3153 153.957C28.1239 154.279 28.0283 154.638 28.0283 155.035V158.878C28.0283 159.27 28.1239 159.629 28.3153 159.956C28.5066 160.278 28.7633 160.535 29.0853 160.726C29.4119 160.917 29.7713 161.013 30.1633 161.013ZM40.8757 151.92H42.1427L39.4547 162H38.1877L40.8757 151.92ZM49.9132 162.21C49.2692 162.21 48.6999 162.082 48.2052 161.825C47.7105 161.564 47.3232 161.202 47.0432 160.74C46.7632 160.278 46.6232 159.739 46.6232 159.123C46.6232 158.521 46.7655 157.977 47.0502 157.492C47.3395 157.007 47.7735 156.633 48.3522 156.372L48.3312 156.827C47.8599 156.598 47.4982 156.276 47.2462 155.861C46.9942 155.441 46.8682 154.977 46.8682 154.468C46.8682 153.899 46.9989 153.409 47.2602 152.998C47.5215 152.587 47.8809 152.27 48.3382 152.046C48.7955 151.822 49.3205 151.71 49.9132 151.71C50.5059 151.71 51.0309 151.822 51.4882 152.046C51.9455 152.27 52.3049 152.587 52.5662 152.998C52.8275 153.409 52.9582 153.899 52.9582 154.468C52.9582 154.977 52.8392 155.439 52.6012 155.854C52.3632 156.265 51.9969 156.589 51.5022 156.827L51.4742 156.379C52.0529 156.631 52.4869 157.002 52.7762 157.492C53.0702 157.977 53.2172 158.521 53.2172 159.123C53.2172 159.739 53.0749 160.278 52.7902 160.74C52.5102 161.202 52.1205 161.564 51.6212 161.825C51.1265 162.082 50.5572 162.21 49.9132 162.21ZM49.9132 161.02C50.5012 161.02 50.9772 160.859 51.3412 160.537C51.7099 160.21 51.8942 159.739 51.8942 159.123C51.8942 158.502 51.7122 158.031 51.3482 157.709C50.9889 157.382 50.5105 157.219 49.9132 157.219C49.3205 157.219 48.8422 157.382 48.4782 157.709C48.1189 158.031 47.9392 158.502 47.9392 159.123C47.9392 159.739 48.1212 160.21 48.4852 160.537C48.8492 160.859 49.3252 161.02 49.9132 161.02ZM49.9132 156.022C50.4265 156.022 50.8419 155.894 51.1592 155.637C51.4765 155.376 51.6352 154.986 51.6352 154.468C51.6352 153.95 51.4765 153.563 51.1592 153.306C50.8419 153.045 50.4265 152.914 49.9132 152.914C49.4045 152.914 48.9892 153.045 48.6672 153.306C48.3499 153.563 48.1912 153.95 48.1912 154.468C48.1912 154.986 48.3499 155.376 48.6672 155.637C48.9892 155.894 49.4045 156.022 49.9132 156.022ZM58.4367 162.21C57.7834 162.21 57.2 162.063 56.6867 161.769C56.178 161.47 55.7744 161.067 55.4757 160.558C55.1817 160.045 55.0347 159.461 55.0347 158.808V155.112C55.0347 154.459 55.1817 153.875 55.4757 153.362C55.7744 152.849 56.178 152.445 56.6867 152.151C57.2 151.857 57.7834 151.71 58.4367 151.71C59.09 151.71 59.6734 151.857 60.1867 152.151C60.7 152.445 61.1037 152.849 61.3977 153.362C61.6917 153.875 61.8387 154.459 61.8387 155.112V158.808C61.8387 159.461 61.6917 160.045 61.3977 160.558C61.1037 161.067 60.7 161.47 60.1867 161.769C59.6734 162.063 59.09 162.21 58.4367 162.21ZM58.4367 161.013C58.8334 161.013 59.1927 160.917 59.5147 160.726C59.8367 160.535 60.0934 160.278 60.2847 159.956C60.476 159.629 60.5717 159.27 60.5717 158.878V155.035C60.5717 154.638 60.476 154.279 60.2847 153.957C60.0934 153.635 59.8367 153.378 59.5147 153.187C59.1927 152.996 58.8334 152.9 58.4367 152.9C58.0447 152.9 57.6854 152.996 57.3587 153.187C57.0367 153.378 56.78 153.635 56.5887 153.957C56.3974 154.279 56.3017 154.638 56.3017 155.035V158.878C56.3017 159.27 56.3974 159.629 56.5887 159.956C56.78 160.278 57.0367 160.535 57.3587 160.726C57.6854 160.917 58.0447 161.013 58.4367 161.013Z" fill="black"/>
<path fill-rule="evenodd" clip-rule="evenodd" d="M139.157 156.711L133.5 162.368L132.086 160.954L137.036 156.004L132.086 151.054L133.5 149.64L139.157 155.297C139.345 155.485 139.45 155.739 139.45 156.004C139.45 156.269 139.345 156.523 139.157 156.711Z" fill="black"/>
<defs>
<linearGradient id="paint0_linear_239_659" x1="76.5" y1="0" x2="76.5" y2="182" gradientUnits="userSpaceOnUse">
<stop stop-color="#56B5FA"/>
<stop offset="1" stop-color="#B7E1FF"/>
</linearGradient>
</defs>
</svg>
