<svg width="25" height="25" viewBox="0 0 25 25" fill="none" xmlns="http://www.w3.org/2000/svg">
<g clip-path="url(#clip0_78_154)">
<path d="M9.23594 1.09986C6.86389 1.92274 4.81824 3.48461 3.39946 5.55604C1.98067 7.62747 1.26355 10.0993 1.35341 12.6084C1.44327 15.1175 2.33539 17.5317 3.89872 19.4963C5.46206 21.461 7.6142 22.8725 10.039 23.5236C12.0049 24.0308 14.0646 24.0531 16.041 23.5885C17.8314 23.1863 19.4866 22.3261 20.8447 21.092C22.2582 19.7684 23.2841 18.0845 23.8123 16.2215C24.3864 14.1955 24.4885 12.0649 24.1109 9.9933H13.0715V14.5726H19.4648C19.337 15.303 19.0632 16.0001 18.6597 16.6222C18.2563 17.2443 17.7315 17.7785 17.1167 18.1931C16.336 18.7095 15.456 19.057 14.5331 19.2132C13.6074 19.3853 12.658 19.3853 11.7324 19.2132C10.7943 19.0192 9.9068 18.632 9.12651 18.0762C7.87299 17.1889 6.93177 15.9283 6.43715 14.4743C5.93418 12.9931 5.93418 11.3873 6.43715 9.90613C6.78923 8.86788 7.37126 7.92256 8.1398 7.14072C9.01929 6.22958 10.1328 5.57829 11.358 5.25831C12.5833 4.93833 13.8731 4.96202 15.0858 5.32679C16.0331 5.6176 16.8994 6.1257 17.6156 6.81058C18.3365 6.09342 19.0561 5.3744 19.7745 4.65352C20.1455 4.26589 20.5498 3.89679 20.9152 3.49988C19.8219 2.48252 18.5387 1.69088 17.139 1.17034C14.59 0.244807 11.801 0.219935 9.23594 1.09986Z" fill="white"/>
<path d="M9.23611 1.09984C11.801 0.219322 14.59 0.24354 17.1391 1.16847C18.5391 1.69255 19.8218 2.488 20.9135 3.50914C20.5426 3.90605 20.1512 4.277 19.7728 4.66278C19.0532 5.38118 18.3342 6.09711 17.6158 6.81056C16.8996 6.12568 16.0333 5.61759 15.0859 5.32678C13.8736 4.96073 12.5839 4.93567 11.3583 5.25434C10.1327 5.57301 9.01857 6.2231 8.13811 7.13329C7.36957 7.91512 6.78754 8.86045 6.43547 9.89869L2.59061 6.92185C3.96683 4.19272 6.34968 2.10515 9.23611 1.09984Z" fill="#E33629"/>
<path d="M1.57041 9.87084C1.77706 8.84664 2.12015 7.85479 2.59051 6.92181L6.43537 9.90608C5.93239 11.3873 5.93239 12.9931 6.43537 14.4743C5.15437 15.4635 3.87275 16.4576 2.59051 17.4567C1.41303 15.1129 1.05392 12.4424 1.57041 9.87084Z" fill="#F8BD00"/>
<path d="M13.0712 9.99139H24.1106C24.4882 12.063 24.386 14.1936 23.812 16.2196C23.2838 18.0826 22.2578 19.7665 20.8444 21.0901C19.6036 20.1219 18.3572 19.1612 17.1164 18.193C17.7315 17.7781 18.2566 17.2432 18.6601 16.6205C19.0636 15.9977 19.3372 15.2999 19.4645 14.5689H13.0712C13.0693 13.0443 13.0712 11.5178 13.0712 9.99139Z" fill="#587DBD"/>
<path d="M2.58856 17.4567C3.8708 16.4675 5.15242 15.4733 6.43342 14.4742C6.92902 15.9287 7.87159 17.1894 9.12649 18.0761C9.90921 18.6293 10.7986 19.0134 11.738 19.2038C12.6636 19.3759 13.613 19.3759 14.5386 19.2038C15.4615 19.0476 16.3416 18.7001 17.1222 18.1837C18.3631 19.1519 19.6094 20.1126 20.8503 21.0808C19.4924 22.3155 17.8371 23.1764 16.0465 23.5791C14.0701 24.0437 12.0105 24.0215 10.0446 23.5142C8.48977 23.0991 7.03746 22.3672 5.7787 21.3646C4.44638 20.3068 3.35819 18.9738 2.58856 17.4567Z" fill="#319F43"/>
</g>
<defs>
<clipPath id="clip0_78_154">
<rect width="23.7406" height="23.7406" fill="white" transform="translate(0.96521 0.319092)"/>
</clipPath>
</defs>
</svg>
