<svg width="153" height="182" viewBox="0 0 153 182" fill="none" xmlns="http://www.w3.org/2000/svg">
<rect width="153" height="182" rx="20" fill="url(#paint0_linear_239_672)"/>
<path d="M76.4502 96.1379L42.775 64.9919C24.4242 46.5604 51.1954 10.8655 76.4502 39.7371C101.705 10.9525 128.725 46.6411 110.119 64.9919L76.4502 96.1379Z" stroke="white" stroke-width="5" stroke-linecap="round" stroke-linejoin="round"/>
<path d="M54.8431 60.9651H64.351L70.7641 48.7354L80.4771 71.2622L88.8229 60.9651H98.1443" stroke="white" stroke-width="4" stroke-linecap="round" stroke-linejoin="round"/>
<path d="M12.98 133V122.92H14.226V127.365H19.532V122.92H20.778V133H19.532V128.548H14.226V133H12.98ZM26.0177 133.21C25.2757 133.21 24.6271 133.047 24.0717 132.72C23.5211 132.389 23.0917 131.929 22.7837 131.341C22.4757 130.748 22.3217 130.058 22.3217 129.269C22.3217 128.443 22.4734 127.729 22.7767 127.127C23.0801 126.52 23.5024 126.054 24.0437 125.727C24.5897 125.396 25.2291 125.23 25.9617 125.23C26.7224 125.23 27.3687 125.405 27.9007 125.755C28.4374 126.105 28.8387 126.604 29.1047 127.253C29.3754 127.902 29.4921 128.674 29.4547 129.57H28.1947V129.122C28.1807 128.193 27.9917 127.5 27.6277 127.043C27.2637 126.581 26.7224 126.35 26.0037 126.35C25.2337 126.35 24.6481 126.597 24.2467 127.092C23.8454 127.587 23.6447 128.296 23.6447 129.22C23.6447 130.111 23.8454 130.802 24.2467 131.292C24.6481 131.782 25.2197 132.027 25.9617 132.027C26.4611 132.027 26.8951 131.913 27.2637 131.684C27.6324 131.455 27.9217 131.126 28.1317 130.697L29.3287 131.11C29.0347 131.777 28.5914 132.295 27.9987 132.664C27.4107 133.028 26.7504 133.21 26.0177 133.21ZM23.2247 129.57V128.569H28.8107V129.57H23.2247ZM33.0255 133.21C32.4608 133.21 31.9872 133.107 31.6045 132.902C31.2265 132.692 30.9395 132.417 30.7435 132.076C30.5522 131.735 30.4565 131.362 30.4565 130.956C30.4565 130.559 30.5312 130.216 30.6805 129.927C30.8345 129.633 31.0492 129.39 31.3245 129.199C31.5998 129.003 31.9288 128.849 32.3115 128.737C32.6708 128.639 33.0722 128.555 33.5155 128.485C33.9635 128.41 34.4162 128.343 34.8735 128.282C35.3308 128.221 35.7578 128.163 36.1545 128.107L35.7065 128.366C35.7205 127.694 35.5852 127.197 35.3005 126.875C35.0205 126.553 34.5352 126.392 33.8445 126.392C33.3872 126.392 32.9858 126.497 32.6405 126.707C32.2998 126.912 32.0595 127.248 31.9195 127.715L30.7365 127.358C30.9185 126.695 31.2708 126.175 31.7935 125.797C32.3162 125.419 33.0045 125.23 33.8585 125.23C34.5445 125.23 35.1325 125.354 35.6225 125.601C36.1172 125.844 36.4718 126.212 36.6865 126.707C36.7938 126.94 36.8615 127.195 36.8895 127.47C36.9175 127.741 36.9315 128.025 36.9315 128.324V133H35.8255V131.187L36.0845 131.355C35.7998 131.966 35.4008 132.428 34.8875 132.741C34.3788 133.054 33.7582 133.21 33.0255 133.21ZM33.2145 132.167C33.6625 132.167 34.0498 132.088 34.3765 131.929C34.7078 131.766 34.9738 131.553 35.1745 131.292C35.3752 131.026 35.5058 130.737 35.5665 130.424C35.6365 130.191 35.6738 129.932 35.6785 129.647C35.6878 129.358 35.6925 129.136 35.6925 128.982L36.1265 129.171C35.7205 129.227 35.3215 129.281 34.9295 129.332C34.5375 129.383 34.1665 129.439 33.8165 129.5C33.4665 129.556 33.1515 129.624 32.8715 129.703C32.6662 129.768 32.4725 129.852 32.2905 129.955C32.1132 130.058 31.9685 130.191 31.8565 130.354C31.7492 130.513 31.6955 130.711 31.6955 130.949C31.6955 131.154 31.7468 131.35 31.8495 131.537C31.9568 131.724 32.1202 131.875 32.3395 131.992C32.5635 132.109 32.8552 132.167 33.2145 132.167ZM38.7515 133V125.44H39.8645V127.267L39.6825 127.029C39.7712 126.796 39.8855 126.581 40.0255 126.385C40.1702 126.189 40.3312 126.028 40.5085 125.902C40.7045 125.743 40.9262 125.622 41.1735 125.538C41.4208 125.454 41.6728 125.405 41.9295 125.391C42.1862 125.372 42.4265 125.389 42.6505 125.44V126.609C42.3892 126.539 42.1022 126.52 41.7895 126.553C41.4768 126.586 41.1875 126.7 40.9215 126.896C40.6788 127.069 40.4898 127.279 40.3545 127.526C40.2238 127.773 40.1328 128.042 40.0815 128.331C40.0302 128.616 40.0045 128.907 40.0045 129.206V133H38.7515ZM48.1951 133C47.7471 133.089 47.3038 133.124 46.8651 133.105C46.4311 133.091 46.0438 133.005 45.7031 132.846C45.3625 132.683 45.1035 132.431 44.9261 132.09C44.7768 131.791 44.6951 131.49 44.6811 131.187C44.6718 130.879 44.6671 130.531 44.6671 130.144V123.34H45.9131V130.088C45.9131 130.396 45.9155 130.66 45.9201 130.879C45.9295 131.098 45.9785 131.287 46.0671 131.446C46.2351 131.745 46.5011 131.92 46.8651 131.971C47.2338 132.022 47.6771 132.008 48.1951 131.929V133ZM43.1341 126.469V125.44H48.1951V126.469H43.1341ZM52.5327 133V122.92H56.5157C56.6137 122.92 56.7304 122.925 56.8657 122.934C57.0011 122.939 57.1317 122.953 57.2577 122.976C57.8037 123.06 58.2611 123.247 58.6297 123.536C59.0031 123.825 59.2831 124.192 59.4697 124.635C59.6564 125.074 59.7497 125.561 59.7497 126.098C59.7497 126.877 59.5467 127.554 59.1407 128.128C58.7347 128.697 58.1397 129.054 57.3557 129.199L56.8797 129.276H53.7787V133H52.5327ZM58.5317 133L56.5437 128.898L57.7757 128.52L59.9597 133H58.5317ZM53.7787 128.093H56.4737C56.5624 128.093 56.6627 128.088 56.7747 128.079C56.8914 128.07 57.0011 128.053 57.1037 128.03C57.4257 127.955 57.6871 127.82 57.8877 127.624C58.0931 127.423 58.2424 127.19 58.3357 126.924C58.4291 126.653 58.4757 126.378 58.4757 126.098C58.4757 125.818 58.4291 125.545 58.3357 125.279C58.2424 125.008 58.0931 124.773 57.8877 124.572C57.6871 124.371 57.4257 124.236 57.1037 124.166C57.0011 124.138 56.8914 124.122 56.7747 124.117C56.6627 124.108 56.5624 124.103 56.4737 124.103H53.7787V128.093ZM63.6505 133.21C63.0858 133.21 62.6122 133.107 62.2295 132.902C61.8515 132.692 61.5645 132.417 61.3685 132.076C61.1772 131.735 61.0815 131.362 61.0815 130.956C61.0815 130.559 61.1562 130.216 61.3055 129.927C61.4595 129.633 61.6742 129.39 61.9495 129.199C62.2248 129.003 62.5538 128.849 62.9365 128.737C63.2958 128.639 63.6972 128.555 64.1405 128.485C64.5885 128.41 65.0412 128.343 65.4985 128.282C65.9558 128.221 66.3828 128.163 66.7795 128.107L66.3315 128.366C66.3455 127.694 66.2102 127.197 65.9255 126.875C65.6455 126.553 65.1602 126.392 64.4695 126.392C64.0122 126.392 63.6108 126.497 63.2655 126.707C62.9248 126.912 62.6845 127.248 62.5445 127.715L61.3615 127.358C61.5435 126.695 61.8958 126.175 62.4185 125.797C62.9412 125.419 63.6295 125.23 64.4835 125.23C65.1695 125.23 65.7575 125.354 66.2475 125.601C66.7422 125.844 67.0968 126.212 67.3115 126.707C67.4188 126.94 67.4865 127.195 67.5145 127.47C67.5425 127.741 67.5565 128.025 67.5565 128.324V133H66.4505V131.187L66.7095 131.355C66.4248 131.966 66.0258 132.428 65.5125 132.741C65.0038 133.054 64.3832 133.21 63.6505 133.21ZM63.8395 132.167C64.2875 132.167 64.6748 132.088 65.0015 131.929C65.3328 131.766 65.5988 131.553 65.7995 131.292C66.0002 131.026 66.1308 130.737 66.1915 130.424C66.2615 130.191 66.2988 129.932 66.3035 129.647C66.3128 129.358 66.3175 129.136 66.3175 128.982L66.7515 129.171C66.3455 129.227 65.9465 129.281 65.5545 129.332C65.1625 129.383 64.7915 129.439 64.4415 129.5C64.0915 129.556 63.7765 129.624 63.4965 129.703C63.2912 129.768 63.0975 129.852 62.9155 129.955C62.7382 130.058 62.5935 130.191 62.4815 130.354C62.3742 130.513 62.3205 130.711 62.3205 130.949C62.3205 131.154 62.3718 131.35 62.4745 131.537C62.5818 131.724 62.7452 131.875 62.9645 131.992C63.1885 132.109 63.4802 132.167 63.8395 132.167ZM73.5975 133C73.1495 133.089 72.7062 133.124 72.2675 133.105C71.8335 133.091 71.4462 133.005 71.1055 132.846C70.7648 132.683 70.5058 132.431 70.3285 132.09C70.1792 131.791 70.0975 131.49 70.0835 131.187C70.0742 130.879 70.0695 130.531 70.0695 130.144V123.34H71.3155V130.088C71.3155 130.396 71.3178 130.66 71.3225 130.879C71.3318 131.098 71.3808 131.287 71.4695 131.446C71.6375 131.745 71.9035 131.92 72.2675 131.971C72.6362 132.022 73.0795 132.008 73.5975 131.929V133ZM68.5365 126.469V125.44H73.5975V126.469H68.5365ZM78.0939 133.21C77.3519 133.21 76.7032 133.047 76.1479 132.72C75.5972 132.389 75.1679 131.929 74.8599 131.341C74.5519 130.748 74.3979 130.058 74.3979 129.269C74.3979 128.443 74.5496 127.729 74.8529 127.127C75.1562 126.52 75.5786 126.054 76.1199 125.727C76.6659 125.396 77.3052 125.23 78.0379 125.23C78.7986 125.23 79.4449 125.405 79.9769 125.755C80.5136 126.105 80.9149 126.604 81.1809 127.253C81.4516 127.902 81.5682 128.674 81.5309 129.57H80.2709V129.122C80.2569 128.193 80.0679 127.5 79.7039 127.043C79.3399 126.581 78.7986 126.35 78.0799 126.35C77.3099 126.35 76.7242 126.597 76.3229 127.092C75.9216 127.587 75.7209 128.296 75.7209 129.22C75.7209 130.111 75.9216 130.802 76.3229 131.292C76.7242 131.782 77.2959 132.027 78.0379 132.027C78.5372 132.027 78.9712 131.913 79.3399 131.684C79.7086 131.455 79.9979 131.126 80.2079 130.697L81.4049 131.11C81.1109 131.777 80.6676 132.295 80.0749 132.664C79.4869 133.028 78.8266 133.21 78.0939 133.21ZM75.3009 129.57V128.569H80.8869V129.57H75.3009Z" fill="black"/>
<path d="M16.13 159.21C15.486 159.21 14.9167 159.082 14.422 158.825C13.9273 158.564 13.54 158.202 13.26 157.74C12.98 157.278 12.84 156.739 12.84 156.123C12.84 155.521 12.9823 154.977 13.267 154.492C13.5563 154.007 13.9903 153.633 14.569 153.372L14.548 153.827C14.0767 153.598 13.715 153.276 13.463 152.861C13.211 152.441 13.085 151.977 13.085 151.468C13.085 150.899 13.2157 150.409 13.477 149.998C13.7383 149.587 14.0977 149.27 14.555 149.046C15.0123 148.822 15.5373 148.71 16.13 148.71C16.7227 148.71 17.2477 148.822 17.705 149.046C18.1623 149.27 18.5217 149.587 18.783 149.998C19.0443 150.409 19.175 150.899 19.175 151.468C19.175 151.977 19.056 152.439 18.818 152.854C18.58 153.265 18.2137 153.589 17.719 153.827L17.691 153.379C18.2697 153.631 18.7037 154.002 18.993 154.492C19.287 154.977 19.434 155.521 19.434 156.123C19.434 156.739 19.2917 157.278 19.007 157.74C18.727 158.202 18.3373 158.564 17.838 158.825C17.3433 159.082 16.774 159.21 16.13 159.21ZM16.13 158.02C16.718 158.02 17.194 157.859 17.558 157.537C17.9267 157.21 18.111 156.739 18.111 156.123C18.111 155.502 17.929 155.031 17.565 154.709C17.2057 154.382 16.7273 154.219 16.13 154.219C15.5373 154.219 15.059 154.382 14.695 154.709C14.3357 155.031 14.156 155.502 14.156 156.123C14.156 156.739 14.338 157.21 14.702 157.537C15.066 157.859 15.542 158.02 16.13 158.02ZM16.13 153.022C16.6433 153.022 17.0587 152.894 17.376 152.637C17.6933 152.376 17.852 151.986 17.852 151.468C17.852 150.95 17.6933 150.563 17.376 150.306C17.0587 150.045 16.6433 149.914 16.13 149.914C15.6213 149.914 15.206 150.045 14.884 150.306C14.5667 150.563 14.408 150.95 14.408 151.468C14.408 151.986 14.5667 152.376 14.884 152.637C15.206 152.894 15.6213 153.022 16.13 153.022ZM24.6885 159.21C24.0492 159.21 23.4682 159.056 22.9455 158.748C22.4275 158.44 22.0145 158.02 21.7065 157.488C21.4032 156.951 21.2515 156.347 21.2515 155.675V152.322C21.2515 151.617 21.4032 150.994 21.7065 150.453C22.0145 149.907 22.4345 149.482 22.9665 149.179C23.5032 148.871 24.1145 148.717 24.8005 148.717C25.3558 148.717 25.8715 148.831 26.3475 149.06C26.8282 149.284 27.2318 149.608 27.5585 150.033L26.6275 150.859C26.4268 150.565 26.1655 150.332 25.8435 150.159C25.5215 149.986 25.1738 149.9 24.8005 149.9C24.3572 149.9 23.9628 150.007 23.6175 150.222C23.2768 150.432 23.0085 150.712 22.8125 151.062C22.6165 151.407 22.5185 151.781 22.5185 152.182V154.205L22.2455 153.897C22.5395 153.477 22.9128 153.141 23.3655 152.889C23.8182 152.637 24.3082 152.511 24.8355 152.511C25.4608 152.511 26.0208 152.658 26.5155 152.952C27.0148 153.246 27.4068 153.645 27.6915 154.149C27.9808 154.648 28.1255 155.211 28.1255 155.836C28.1255 156.461 27.9692 157.028 27.6565 157.537C27.3438 158.046 26.9262 158.452 26.4035 158.755C25.8855 159.058 25.3138 159.21 24.6885 159.21ZM24.6885 158.006C25.0898 158.006 25.4562 157.91 25.7875 157.719C26.1188 157.523 26.3802 157.262 26.5715 156.935C26.7675 156.604 26.8655 156.237 26.8655 155.836C26.8655 155.435 26.7675 155.068 26.5715 154.737C26.3802 154.406 26.1188 154.144 25.7875 153.953C25.4608 153.757 25.0968 153.659 24.6955 153.659C24.2942 153.659 23.9278 153.757 23.5965 153.953C23.2698 154.144 23.0085 154.406 22.8125 154.737C22.6165 155.068 22.5185 155.435 22.5185 155.836C22.5185 156.233 22.6142 156.597 22.8055 156.928C23.0015 157.255 23.2628 157.516 23.5895 157.712C23.9208 157.908 24.2872 158.006 24.6885 158.006ZM36.2215 159.21C35.5122 159.21 34.9149 159.035 34.4295 158.685C33.9442 158.33 33.5755 157.852 33.3235 157.25C33.0762 156.643 32.9525 155.964 32.9525 155.213C32.9525 154.452 33.0762 153.771 33.3235 153.169C33.5755 152.567 33.9442 152.093 34.4295 151.748C34.9195 151.403 35.5192 151.23 36.2285 151.23C36.9285 151.23 37.5305 151.405 38.0345 151.755C38.5432 152.1 38.9329 152.574 39.2035 153.176C39.4742 153.778 39.6095 154.457 39.6095 155.213C39.6095 155.969 39.4742 156.648 39.2035 157.25C38.9329 157.852 38.5432 158.33 38.0345 158.685C37.5305 159.035 36.9262 159.21 36.2215 159.21ZM32.7425 159V148.92H33.9955V153.435H33.8555V159H32.7425ZM36.0675 158.069C36.5669 158.069 36.9799 157.943 37.3065 157.691C37.6332 157.439 37.8782 157.098 38.0415 156.669C38.2049 156.235 38.2865 155.75 38.2865 155.213C38.2865 154.681 38.2049 154.2 38.0415 153.771C37.8829 153.342 37.6355 153.001 37.2995 152.749C36.9682 152.497 36.5459 152.371 36.0325 152.371C35.5425 152.371 35.1365 152.492 34.8145 152.735C34.4925 152.973 34.2522 153.307 34.0935 153.736C33.9349 154.161 33.8555 154.653 33.8555 155.213C33.8555 155.764 33.9325 156.256 34.0865 156.69C34.2452 157.119 34.4879 157.458 34.8145 157.705C35.1412 157.948 35.5589 158.069 36.0675 158.069ZM44.6161 159.21C43.9067 159.21 43.3094 159.035 42.8241 158.685C42.3387 158.33 41.9701 157.852 41.7181 157.25C41.4707 156.643 41.3471 155.964 41.3471 155.213C41.3471 154.452 41.4707 153.771 41.7181 153.169C41.9701 152.567 42.3387 152.093 42.8241 151.748C43.3141 151.403 43.9137 151.23 44.6231 151.23C45.3231 151.23 45.9251 151.405 46.4291 151.755C46.9377 152.1 47.3274 152.574 47.5981 153.176C47.8687 153.778 48.0041 154.457 48.0041 155.213C48.0041 155.969 47.8687 156.648 47.5981 157.25C47.3274 157.852 46.9377 158.33 46.4291 158.685C45.9251 159.035 45.3207 159.21 44.6161 159.21ZM41.1371 162.36V151.44H42.2501V157.005H42.3901V162.36H41.1371ZM44.4621 158.069C44.9614 158.069 45.3744 157.943 45.7011 157.691C46.0277 157.439 46.2727 157.098 46.4361 156.669C46.5994 156.235 46.6811 155.75 46.6811 155.213C46.6811 154.681 46.5994 154.2 46.4361 153.771C46.2774 153.342 46.0301 153.001 45.6941 152.749C45.3627 152.497 44.9404 152.371 44.4271 152.371C43.9371 152.371 43.5311 152.492 43.2091 152.735C42.8871 152.973 42.6467 153.307 42.4881 153.736C42.3294 154.161 42.2501 154.653 42.2501 155.213C42.2501 155.764 42.3271 156.256 42.4811 156.69C42.6397 157.119 42.8824 157.458 43.2091 157.705C43.5357 157.948 43.9534 158.069 44.4621 158.069ZM58.5756 159L58.5826 154.163C58.5826 153.598 58.4309 153.157 58.1276 152.84C57.8289 152.518 57.4393 152.357 56.9586 152.357C56.6786 152.357 56.4126 152.422 56.1606 152.553C55.9086 152.679 55.7033 152.88 55.5446 153.155C55.3859 153.426 55.3066 153.773 55.3066 154.198L54.6486 153.932C54.6393 153.395 54.7489 152.926 54.9776 152.525C55.2109 152.119 55.5283 151.804 55.9296 151.58C56.3309 151.356 56.7836 151.244 57.2876 151.244C58.0763 151.244 58.6969 151.484 59.1496 151.965C59.6023 152.441 59.8286 153.083 59.8286 153.89L59.8216 159H58.5756ZM49.5316 159V151.44H50.6446V153.463H50.7846V159H49.5316ZM54.0606 159L54.0676 154.212C54.0676 153.633 53.9183 153.181 53.6196 152.854C53.3209 152.523 52.9243 152.357 52.4296 152.357C51.9396 152.357 51.5429 152.525 51.2396 152.861C50.9363 153.197 50.7846 153.643 50.7846 154.198L50.1266 153.806C50.1266 153.316 50.2433 152.877 50.4766 152.49C50.7099 152.103 51.0273 151.799 51.4286 151.58C51.8299 151.356 52.2849 151.244 52.7936 151.244C53.3023 151.244 53.7456 151.351 54.1236 151.566C54.5016 151.781 54.7933 152.089 54.9986 152.49C55.2039 152.887 55.3066 153.36 55.3066 153.911L55.2996 159H54.0606Z" fill="black"/>
<path fill-rule="evenodd" clip-rule="evenodd" d="M139.157 153.711L133.5 159.368L132.086 157.954L137.036 153.004L132.086 148.054L133.5 146.64L139.157 152.297C139.344 152.485 139.45 152.739 139.45 153.004C139.45 153.269 139.344 153.523 139.157 153.711Z" fill="black"/>
<defs>
<linearGradient id="paint0_linear_239_672" x1="76.5" y1="0" x2="76.5" y2="182" gradientUnits="userSpaceOnUse">
<stop stop-color="#F7A9AC"/>
<stop offset="1" stop-color="#FDD0D2"/>
</linearGradient>
</defs>
</svg>
