<svg width="153" height="182" viewBox="0 0 153 182" fill="none" xmlns="http://www.w3.org/2000/svg">
<rect width="153" height="182" rx="20" fill="url(#paint0_linear_239_684)"/>
<path fill-rule="evenodd" clip-rule="evenodd" d="M87.2957 35.0326L93.0718 54.7149C93.7494 57.0254 95.1551 59.0539 97.0786 60.497C99.0022 61.9401 101.34 62.7203 103.743 62.7208H116.55C117.73 62.7208 118.862 62.2509 119.697 61.4145C120.531 60.578 121 59.4436 121 58.2607C121 57.0778 120.531 55.9434 119.697 55.107C118.862 54.2705 117.73 53.8006 116.55 53.8006H103.743C103.262 53.8009 102.794 53.6451 102.409 53.3564C102.024 53.0678 101.743 52.6618 101.607 52.1995L93.8639 25.8047C92.0305 19.5472 83.264 19.351 81.1458 25.5148L62.8385 78.9109L55.6161 60.8119C54.7902 58.7411 53.3637 56.9662 51.521 55.7163C49.6782 54.4665 47.5038 53.7992 45.2788 53.8006H36.45C35.2698 53.8006 34.1379 54.2705 33.3034 55.107C32.4688 55.9434 32 57.0778 32 58.2607C32 59.4436 32.4688 60.578 33.3034 61.4145C34.1379 62.2509 35.2698 62.7208 36.45 62.7208H45.2788C45.7239 62.72 46.159 62.853 46.5279 63.1027C46.8968 63.3523 47.1825 63.7071 47.348 64.1213L56.7954 87.7953C59.0916 93.5533 67.2974 93.3481 69.3044 87.4831L87.2957 35.0326Z" fill="white"/>
<path d="M16.557 133.21C15.843 133.21 15.199 133.089 14.625 132.846C14.0557 132.603 13.5843 132.258 13.211 131.81C12.8423 131.357 12.602 130.823 12.49 130.207L13.778 130.004C13.9413 130.639 14.2797 131.136 14.793 131.495C15.311 131.85 15.92 132.027 16.62 132.027C17.0727 132.027 17.481 131.957 17.845 131.817C18.2137 131.672 18.5053 131.467 18.72 131.201C18.9347 130.935 19.042 130.62 19.042 130.256C19.042 130.032 19.0023 129.841 18.923 129.682C18.8483 129.519 18.7433 129.381 18.608 129.269C18.4773 129.152 18.328 129.054 18.16 128.975C17.992 128.896 17.817 128.83 17.635 128.779L15.066 128.016C14.786 127.932 14.5153 127.827 14.254 127.701C13.9927 127.57 13.7593 127.409 13.554 127.218C13.3487 127.022 13.1853 126.789 13.064 126.518C12.9427 126.243 12.882 125.918 12.882 125.545C12.882 124.948 13.036 124.439 13.344 124.019C13.6567 123.594 14.079 123.27 14.611 123.046C15.143 122.822 15.7427 122.712 16.41 122.717C17.0867 122.722 17.691 122.843 18.223 123.081C18.7597 123.314 19.203 123.65 19.553 124.089C19.9077 124.528 20.1457 125.053 20.267 125.664L18.944 125.895C18.874 125.484 18.7177 125.132 18.475 124.838C18.237 124.539 17.9383 124.311 17.579 124.152C17.2197 123.989 16.8253 123.905 16.396 123.9C15.9853 123.895 15.6143 123.961 15.283 124.096C14.9517 124.231 14.688 124.42 14.492 124.663C14.296 124.901 14.198 125.176 14.198 125.489C14.198 125.797 14.2867 126.047 14.464 126.238C14.6413 126.425 14.8583 126.574 15.115 126.686C15.3763 126.793 15.6307 126.882 15.878 126.952L17.796 127.505C18.0153 127.566 18.2673 127.65 18.552 127.757C18.8413 127.864 19.1213 128.016 19.392 128.212C19.6627 128.403 19.8867 128.66 20.064 128.982C20.2413 129.299 20.33 129.701 20.33 130.186C20.33 130.671 20.232 131.103 20.036 131.481C19.8447 131.859 19.5763 132.176 19.231 132.433C18.8857 132.685 18.4843 132.876 18.027 133.007C17.5697 133.142 17.0797 133.21 16.557 133.21ZM25.2704 133.21C24.561 133.21 23.9637 133.035 23.4784 132.685C22.993 132.33 22.6244 131.852 22.3724 131.25C22.125 130.643 22.0014 129.964 22.0014 129.213C22.0014 128.452 22.125 127.771 22.3724 127.169C22.6244 126.567 22.993 126.093 23.4784 125.748C23.9684 125.403 24.568 125.23 25.2774 125.23C25.9774 125.23 26.5794 125.405 27.0834 125.755C27.592 126.1 27.9817 126.574 28.2524 127.176C28.523 127.778 28.6584 128.457 28.6584 129.213C28.6584 129.969 28.523 130.648 28.2524 131.25C27.9817 131.852 27.592 132.33 27.0834 132.685C26.5794 133.035 25.975 133.21 25.2704 133.21ZM21.7914 136.36V125.44H22.9044V131.005H23.0444V136.36H21.7914ZM25.1164 132.069C25.6157 132.069 26.0287 131.943 26.3554 131.691C26.682 131.439 26.927 131.098 27.0904 130.669C27.2537 130.235 27.3354 129.75 27.3354 129.213C27.3354 128.681 27.2537 128.2 27.0904 127.771C26.9317 127.342 26.6844 127.001 26.3484 126.749C26.017 126.497 25.5947 126.371 25.0814 126.371C24.5914 126.371 24.1854 126.492 23.8634 126.735C23.5414 126.973 23.301 127.307 23.1424 127.736C22.9837 128.161 22.9044 128.653 22.9044 129.213C22.9044 129.764 22.9814 130.256 23.1354 130.69C23.294 131.119 23.5367 131.458 23.8634 131.705C24.19 131.948 24.6077 132.069 25.1164 132.069ZM33.4129 133.21C32.6616 133.21 32.0129 133.04 31.4669 132.699C30.9256 132.358 30.5079 131.887 30.2139 131.285C29.9199 130.683 29.7729 129.992 29.7729 129.213C29.7729 128.42 29.9222 127.724 30.2209 127.127C30.5196 126.53 30.9419 126.065 31.4879 125.734C32.0339 125.398 32.6756 125.23 33.4129 125.23C34.1689 125.23 34.8199 125.4 35.3659 125.741C35.9119 126.077 36.3296 126.546 36.6189 127.148C36.9129 127.745 37.0599 128.434 37.0599 129.213C37.0599 130.002 36.9129 130.697 36.6189 131.299C36.3249 131.896 35.9049 132.365 35.3589 132.706C34.8129 133.042 34.1642 133.21 33.4129 133.21ZM33.4129 132.027C34.1969 132.027 34.7802 131.766 35.1629 131.243C35.5456 130.72 35.7369 130.044 35.7369 129.213C35.7369 128.359 35.5432 127.68 35.1559 127.176C34.7686 126.667 34.1876 126.413 33.4129 126.413C32.8856 126.413 32.4516 126.532 32.1109 126.77C31.7702 127.008 31.5159 127.337 31.3479 127.757C31.1799 128.177 31.0959 128.662 31.0959 129.213C31.0959 130.062 31.2919 130.744 31.6839 131.257C32.0759 131.77 32.6522 132.027 33.4129 132.027ZM38.3211 132.993L38.3281 131.873L42.8011 127.848C43.1744 127.512 43.4241 127.195 43.5501 126.896C43.6808 126.593 43.7461 126.282 43.7461 125.965C43.7461 125.578 43.6574 125.228 43.4801 124.915C43.3028 124.602 43.0601 124.355 42.7521 124.173C42.4488 123.991 42.1034 123.9 41.7161 123.9C41.3148 123.9 40.9578 123.996 40.6451 124.187C40.3324 124.374 40.0851 124.623 39.9031 124.936C39.7258 125.249 39.6394 125.589 39.6441 125.958H38.3701C38.3701 125.323 38.5171 124.763 38.8111 124.278C39.1051 123.788 39.5041 123.405 40.0081 123.13C40.5168 122.85 41.0931 122.71 41.7371 122.71C42.3624 122.71 42.9224 122.855 43.4171 123.144C43.9118 123.429 44.3014 123.818 44.5861 124.313C44.8754 124.803 45.0201 125.358 45.0201 125.979C45.0201 126.418 44.9641 126.798 44.8521 127.12C44.7448 127.442 44.5768 127.741 44.3481 128.016C44.1194 128.287 43.8324 128.576 43.4871 128.884L39.7701 132.223L39.6091 131.803H45.0201V132.993H38.3211Z" fill="black"/>
<path d="M16.277 148.717C16.921 148.717 17.502 148.871 18.02 149.179C18.538 149.487 18.9487 149.907 19.252 150.439C19.56 150.971 19.714 151.575 19.714 152.252V155.605C19.714 156.31 19.5623 156.933 19.259 157.474C18.9557 158.015 18.5357 158.44 17.999 158.748C17.467 159.056 16.8557 159.21 16.165 159.21C15.6143 159.21 15.0987 159.096 14.618 158.867C14.142 158.638 13.7383 158.314 13.407 157.894L14.338 157.068C14.5433 157.357 14.807 157.591 15.129 157.768C15.451 157.941 15.7963 158.027 16.165 158.027C16.613 158.027 17.0073 157.92 17.348 157.705C17.6933 157.49 17.9617 157.21 18.153 156.865C18.349 156.52 18.447 156.146 18.447 155.745V153.722L18.72 154.03C18.4307 154.45 18.0597 154.786 17.607 155.038C17.1543 155.29 16.662 155.416 16.13 155.416C15.5047 155.416 14.9447 155.269 14.45 154.975C13.9553 154.681 13.5633 154.284 13.274 153.785C12.9847 153.281 12.84 152.716 12.84 152.091C12.84 151.466 12.9963 150.899 13.309 150.39C13.6217 149.877 14.037 149.471 14.555 149.172C15.0777 148.869 15.6517 148.717 16.277 148.717ZM16.277 149.921C15.8757 149.921 15.5093 150.019 15.178 150.215C14.8513 150.406 14.59 150.668 14.394 150.999C14.198 151.326 14.1 151.69 14.1 152.091C14.1 152.492 14.1957 152.859 14.387 153.19C14.583 153.517 14.8443 153.778 15.171 153.974C15.5023 154.17 15.8687 154.268 16.27 154.268C16.6713 154.268 17.0377 154.17 17.369 153.974C17.7003 153.778 17.9617 153.517 18.153 153.19C18.349 152.859 18.447 152.492 18.447 152.091C18.447 151.694 18.349 151.333 18.153 151.006C17.9617 150.675 17.7003 150.411 17.369 150.215C17.0423 150.019 16.6783 149.921 16.277 149.921ZM24.6573 159.21C24.1393 159.21 23.6563 159.103 23.2083 158.888C22.765 158.673 22.3846 158.379 22.0673 158.006C21.7546 157.628 21.5306 157.194 21.3953 156.704L22.5923 156.382C22.6763 156.713 22.8256 157 23.0403 157.243C23.255 157.481 23.5046 157.668 23.7893 157.803C24.0786 157.934 24.3796 157.999 24.6923 157.999C25.103 157.999 25.4716 157.901 25.7983 157.705C26.1296 157.504 26.391 157.241 26.5823 156.914C26.7736 156.583 26.8693 156.221 26.8693 155.829C26.8693 155.423 26.769 155.057 26.5683 154.73C26.3723 154.399 26.1086 154.137 25.7773 153.946C25.446 153.755 25.0843 153.659 24.6923 153.659C24.249 153.659 23.8686 153.752 23.5513 153.939C23.2386 154.121 22.9913 154.345 22.8093 154.611L21.7033 154.191L22.0113 148.92H27.4223V150.103H22.6133L23.1663 149.585L22.9073 153.806L22.6343 153.449C22.9143 153.15 23.248 152.919 23.6353 152.756C24.0273 152.593 24.4263 152.511 24.8323 152.511C25.4576 152.511 26.0176 152.658 26.5123 152.952C27.007 153.241 27.399 153.638 27.6883 154.142C27.9776 154.641 28.1223 155.204 28.1223 155.829C28.1223 156.45 27.9636 157.017 27.6463 157.53C27.329 158.039 26.9066 158.447 26.3793 158.755C25.8566 159.058 25.2826 159.21 24.6573 159.21ZM30.9164 159L30.0764 158.16L39.3304 148.92L40.1704 149.76L30.9164 159ZM38.0704 159.21C37.6084 159.21 37.1861 159.098 36.8034 158.874C36.4254 158.645 36.1221 158.342 35.8934 157.964C35.6647 157.581 35.5504 157.157 35.5504 156.69C35.5504 156.233 35.6671 155.813 35.9004 155.43C36.1337 155.047 36.4417 154.742 36.8244 154.513C37.2071 154.284 37.6224 154.17 38.0704 154.17C38.5324 154.17 38.9547 154.284 39.3374 154.513C39.7201 154.737 40.0234 155.04 40.2474 155.423C40.4761 155.801 40.5904 156.223 40.5904 156.69C40.5904 157.157 40.4761 157.581 40.2474 157.964C40.0234 158.342 39.7201 158.645 39.3374 158.874C38.9547 159.098 38.5324 159.21 38.0704 159.21ZM38.0704 158.111C38.3271 158.111 38.5627 158.046 38.7774 157.915C38.9967 157.784 39.1694 157.612 39.2954 157.397C39.4261 157.182 39.4914 156.947 39.4914 156.69C39.4914 156.433 39.4261 156.198 39.2954 155.983C39.1694 155.764 38.9967 155.591 38.7774 155.465C38.5627 155.334 38.3271 155.269 38.0704 155.269C37.8137 155.269 37.5781 155.334 37.3634 155.465C37.1487 155.591 36.9761 155.764 36.8454 155.983C36.7147 156.198 36.6494 156.433 36.6494 156.69C36.6494 156.947 36.7147 157.182 36.8454 157.397C36.9761 157.612 37.1487 157.784 37.3634 157.915C37.5781 158.046 37.8137 158.111 38.0704 158.111ZM32.1764 153.75C31.7144 153.75 31.2921 153.638 30.9094 153.414C30.5267 153.185 30.2211 152.882 29.9924 152.504C29.7684 152.121 29.6564 151.697 29.6564 151.23C29.6564 150.773 29.7731 150.353 30.0064 149.97C30.2397 149.587 30.5477 149.282 30.9304 149.053C31.3131 148.824 31.7284 148.71 32.1764 148.71C32.6384 148.71 33.0584 148.824 33.4364 149.053C33.8191 149.277 34.1247 149.58 34.3534 149.963C34.5821 150.341 34.6964 150.763 34.6964 151.23C34.6964 151.697 34.5821 152.121 34.3534 152.504C34.1247 152.882 33.8191 153.185 33.4364 153.414C33.0584 153.638 32.6384 153.75 32.1764 153.75ZM32.1764 152.651C32.4331 152.651 32.6687 152.586 32.8834 152.455C33.1027 152.324 33.2754 152.152 33.4014 151.937C33.5321 151.722 33.5974 151.487 33.5974 151.23C33.5974 150.973 33.5321 150.738 33.4014 150.523C33.2754 150.304 33.1027 150.131 32.8834 150.005C32.6687 149.874 32.4331 149.809 32.1764 149.809C31.9197 149.809 31.6841 149.874 31.4694 150.005C31.2547 150.131 31.0821 150.304 30.9514 150.523C30.8207 150.738 30.7554 150.973 30.7554 151.23C30.7554 151.487 30.8207 151.722 30.9514 151.937C31.0821 152.152 31.2547 152.324 31.4694 152.455C31.6841 152.586 31.9197 152.651 32.1764 152.651Z" fill="black"/>
<path fill-rule="evenodd" clip-rule="evenodd" d="M139.157 153.711L133.5 159.368L132.086 157.954L137.036 153.004L132.086 148.054L133.5 146.64L139.157 152.297C139.344 152.485 139.45 152.739 139.45 153.004C139.45 153.269 139.344 153.523 139.157 153.711Z" fill="black"/>
<defs>
<linearGradient id="paint0_linear_239_684" x1="76.5" y1="0" x2="76.5" y2="182" gradientUnits="userSpaceOnUse">
<stop stop-color="#FFE799"/>
<stop offset="1" stop-color="#FFF2C7"/>
</linearGradient>
</defs>
</svg>
