<svg width="153" height="182" viewBox="0 0 153 182" fill="none" xmlns="http://www.w3.org/2000/svg">
<rect width="153" height="182" rx="20" fill="url(#paint0_linear_239_693)"/>
<path d="M76.5 27.75C79.9636 27.75 83.2946 29.0812 85.8042 31.4683C88.3138 33.8554 89.8099 37.1158 89.9831 40.575L90 41.25L90.0034 63.957L90.189 64.1528C92.8887 67.1005 94.5648 70.8409 94.968 74.8177L95.0389 75.7493L95.0625 76.6875C95.0622 79.6669 94.3447 82.6025 92.9707 85.2462C91.5967 87.8898 89.6065 90.1639 87.1683 91.8763C84.73 93.5886 81.9155 94.6889 78.9624 95.0841C76.0093 95.4793 73.0045 95.1579 70.2018 94.147C67.3991 93.1361 64.8809 91.4654 62.8601 89.2761C60.8392 87.0868 59.3751 84.4432 58.5913 81.5687C57.8075 78.6942 57.7272 75.6733 58.3571 72.7612C58.987 69.8492 60.3086 67.1315 62.2102 64.8379L62.8144 64.146L62.9966 63.9536L63 41.25C62.9997 37.9049 64.2414 34.6787 66.4843 32.1969C68.7273 29.7152 71.8117 28.1545 75.1399 27.8175L75.825 27.7669L76.5 27.75ZM76.5 34.5C74.7971 34.4995 73.1568 35.1426 71.9082 36.3006C70.6595 37.4585 69.8946 39.0456 69.7669 40.7437L69.75 41.25V66.8764L68.6261 67.8821C66.8656 69.4566 65.6175 71.5227 65.0429 73.8137C64.4684 76.1047 64.5938 78.5152 65.4031 80.7342C66.2123 82.9531 67.6681 84.8785 69.5826 86.2618C71.497 87.6451 73.7822 88.4227 76.143 88.4942C78.5038 88.5657 80.8318 87.9278 82.8265 86.663C84.8212 85.3981 86.3909 83.5644 87.3329 81.3984C88.2749 79.2325 88.5461 76.834 88.1112 74.5124C87.6764 72.1909 86.5556 70.053 84.8936 68.3749L84.3772 67.8855L83.2534 66.8797L83.25 41.25C83.25 39.4598 82.5388 37.7429 81.273 36.477C80.0071 35.2112 78.2902 34.5 76.5 34.5ZM76.5 48C77.3951 48 78.2535 48.3556 78.8865 48.9885C79.5194 49.6215 79.875 50.4799 79.875 51.375V68.952C81.6516 69.7274 83.107 71.0908 83.9966 72.8131C84.8862 74.5354 85.1556 76.5114 84.7595 78.409C84.3635 80.3065 83.3261 82.0098 81.8219 83.2325C80.3178 84.4551 78.4384 85.1226 76.5 85.1226C74.5616 85.1226 72.6823 84.4551 71.1781 83.2325C69.6739 82.0098 68.6365 80.3065 68.2405 78.409C67.8444 76.5114 68.1138 74.5354 69.0034 72.8131C69.893 71.0908 71.3484 69.7274 73.125 68.952V51.375C73.125 50.4799 73.4806 49.6215 74.1135 48.9885C74.7465 48.3556 75.6049 48 76.5 48Z" fill="white"/>
<path d="M15.577 133V124.103H12.14V122.92H20.26V124.103H16.823V133H15.577ZM23.5294 133.21C22.7874 133.21 22.1388 133.047 21.5834 132.72C21.0328 132.389 20.6034 131.929 20.2954 131.341C19.9874 130.748 19.8334 130.058 19.8334 129.269C19.8334 128.443 19.9851 127.729 20.2884 127.127C20.5918 126.52 21.0141 126.054 21.5554 125.727C22.1014 125.396 22.7408 125.23 23.4734 125.23C24.2341 125.23 24.8804 125.405 25.4124 125.755C25.9491 126.105 26.3504 126.604 26.6164 127.253C26.8871 127.902 27.0038 128.674 26.9664 129.57H25.7064V129.122C25.6924 128.193 25.5034 127.5 25.1394 127.043C24.7754 126.581 24.2341 126.35 23.5154 126.35C22.7454 126.35 22.1598 126.597 21.7584 127.092C21.3571 127.587 21.1564 128.296 21.1564 129.22C21.1564 130.111 21.3571 130.802 21.7584 131.292C22.1598 131.782 22.7314 132.027 23.4734 132.027C23.9728 132.027 24.4068 131.913 24.7754 131.684C25.1441 131.455 25.4334 131.126 25.6434 130.697L26.8404 131.11C26.5464 131.777 26.1031 132.295 25.5104 132.664C24.9224 133.028 24.2621 133.21 23.5294 133.21ZM20.7364 129.57V128.569H26.3224V129.57H20.7364ZM37.3568 133L37.3638 128.163C37.3638 127.598 37.2122 127.157 36.9088 126.84C36.6102 126.518 36.2205 126.357 35.7398 126.357C35.4598 126.357 35.1938 126.422 34.9418 126.553C34.6898 126.679 34.4845 126.88 34.3258 127.155C34.1672 127.426 34.0878 127.773 34.0878 128.198L33.4298 127.932C33.4205 127.395 33.5302 126.926 33.7588 126.525C33.9922 126.119 34.3095 125.804 34.7108 125.58C35.1122 125.356 35.5648 125.244 36.0688 125.244C36.8575 125.244 37.4782 125.484 37.9308 125.965C38.3835 126.441 38.6098 127.083 38.6098 127.89L38.6028 133H37.3568ZM28.3128 133V125.44H29.4258V127.463H29.5658V133H28.3128ZM32.8418 133L32.8488 128.212C32.8488 127.633 32.6995 127.181 32.4008 126.854C32.1022 126.523 31.7055 126.357 31.2108 126.357C30.7208 126.357 30.3242 126.525 30.0208 126.861C29.7175 127.197 29.5658 127.643 29.5658 128.198L28.9078 127.806C28.9078 127.316 29.0245 126.877 29.2578 126.49C29.4912 126.103 29.8085 125.799 30.2098 125.58C30.6112 125.356 31.0662 125.244 31.5748 125.244C32.0835 125.244 32.5268 125.351 32.9048 125.566C33.2828 125.781 33.5745 126.089 33.7798 126.49C33.9852 126.887 34.0878 127.36 34.0878 127.911L34.0808 133H32.8418ZM43.9051 133.21C43.1958 133.21 42.5985 133.035 42.1131 132.685C41.6278 132.33 41.2591 131.852 41.0071 131.25C40.7598 130.643 40.6361 129.964 40.6361 129.213C40.6361 128.452 40.7598 127.771 41.0071 127.169C41.2591 126.567 41.6278 126.093 42.1131 125.748C42.6031 125.403 43.2028 125.23 43.9121 125.23C44.6121 125.23 45.2141 125.405 45.7181 125.755C46.2268 126.1 46.6165 126.574 46.8871 127.176C47.1578 127.778 47.2931 128.457 47.2931 129.213C47.2931 129.969 47.1578 130.648 46.8871 131.25C46.6165 131.852 46.2268 132.33 45.7181 132.685C45.2141 133.035 44.6098 133.21 43.9051 133.21ZM40.4261 136.36V125.44H41.5391V131.005H41.6791V136.36H40.4261ZM43.7511 132.069C44.2505 132.069 44.6635 131.943 44.9901 131.691C45.3168 131.439 45.5618 131.098 45.7251 130.669C45.8885 130.235 45.9701 129.75 45.9701 129.213C45.9701 128.681 45.8885 128.2 45.7251 127.771C45.5665 127.342 45.3191 127.001 44.9831 126.749C44.6518 126.497 44.2295 126.371 43.7161 126.371C43.2261 126.371 42.8201 126.492 42.4981 126.735C42.1761 126.973 41.9358 127.307 41.7771 127.736C41.6185 128.161 41.5391 128.653 41.5391 129.213C41.5391 129.764 41.6161 130.256 41.7701 130.69C41.9288 131.119 42.1715 131.458 42.4981 131.705C42.8248 131.948 43.2425 132.069 43.7511 132.069ZM52.1037 133.21C51.3617 133.21 50.713 133.047 50.1577 132.72C49.607 132.389 49.1777 131.929 48.8697 131.341C48.5617 130.748 48.4077 130.058 48.4077 129.269C48.4077 128.443 48.5593 127.729 48.8627 127.127C49.166 126.52 49.5883 126.054 50.1297 125.727C50.6757 125.396 51.315 125.23 52.0477 125.23C52.8083 125.23 53.4547 125.405 53.9867 125.755C54.5233 126.105 54.9247 126.604 55.1907 127.253C55.4613 127.902 55.578 128.674 55.5407 129.57H54.2807V129.122C54.2667 128.193 54.0777 127.5 53.7137 127.043C53.3497 126.581 52.8083 126.35 52.0897 126.35C51.3197 126.35 50.734 126.597 50.3327 127.092C49.9313 127.587 49.7307 128.296 49.7307 129.22C49.7307 130.111 49.9313 130.802 50.3327 131.292C50.734 131.782 51.3057 132.027 52.0477 132.027C52.547 132.027 52.981 131.913 53.3497 131.684C53.7183 131.455 54.0077 131.126 54.2177 130.697L55.4147 131.11C55.1207 131.777 54.6773 132.295 54.0847 132.664C53.4967 133.028 52.8363 133.21 52.1037 133.21ZM49.3107 129.57V128.569H54.8967V129.57H49.3107ZM57.0991 133V125.44H58.2121V127.267L58.0301 127.029C58.1188 126.796 58.2331 126.581 58.3731 126.385C58.5178 126.189 58.6788 126.028 58.8561 125.902C59.0521 125.743 59.2738 125.622 59.5211 125.538C59.7685 125.454 60.0205 125.405 60.2771 125.391C60.5338 125.372 60.7741 125.389 60.9981 125.44V126.609C60.7368 126.539 60.4498 126.52 60.1371 126.553C59.8245 126.586 59.5351 126.7 59.2691 126.896C59.0265 127.069 58.8375 127.279 58.7021 127.526C58.5715 127.773 58.4805 128.042 58.4291 128.331C58.3778 128.616 58.3521 128.907 58.3521 129.206V133H57.0991ZM64.2247 133.21C63.66 133.21 63.1864 133.107 62.8037 132.902C62.4257 132.692 62.1387 132.417 61.9427 132.076C61.7514 131.735 61.6557 131.362 61.6557 130.956C61.6557 130.559 61.7304 130.216 61.8797 129.927C62.0337 129.633 62.2484 129.39 62.5237 129.199C62.799 129.003 63.128 128.849 63.5107 128.737C63.87 128.639 64.2714 128.555 64.7147 128.485C65.1627 128.41 65.6154 128.343 66.0727 128.282C66.53 128.221 66.957 128.163 67.3537 128.107L66.9057 128.366C66.9197 127.694 66.7844 127.197 66.4997 126.875C66.2197 126.553 65.7344 126.392 65.0437 126.392C64.5864 126.392 64.185 126.497 63.8397 126.707C63.499 126.912 63.2587 127.248 63.1187 127.715L61.9357 127.358C62.1177 126.695 62.47 126.175 62.9927 125.797C63.5154 125.419 64.2037 125.23 65.0577 125.23C65.7437 125.23 66.3317 125.354 66.8217 125.601C67.3164 125.844 67.671 126.212 67.8857 126.707C67.993 126.94 68.0607 127.195 68.0887 127.47C68.1167 127.741 68.1307 128.025 68.1307 128.324V133H67.0247V131.187L67.2837 131.355C66.999 131.966 66.6 132.428 66.0867 132.741C65.578 133.054 64.9574 133.21 64.2247 133.21ZM64.4137 132.167C64.8617 132.167 65.249 132.088 65.5757 131.929C65.907 131.766 66.173 131.553 66.3737 131.292C66.5744 131.026 66.705 130.737 66.7657 130.424C66.8357 130.191 66.873 129.932 66.8777 129.647C66.887 129.358 66.8917 129.136 66.8917 128.982L67.3257 129.171C66.9197 129.227 66.5207 129.281 66.1287 129.332C65.7367 129.383 65.3657 129.439 65.0157 129.5C64.6657 129.556 64.3507 129.624 64.0707 129.703C63.8654 129.768 63.6717 129.852 63.4897 129.955C63.3124 130.058 63.1677 130.191 63.0557 130.354C62.9484 130.513 62.8947 130.711 62.8947 130.949C62.8947 131.154 62.946 131.35 63.0487 131.537C63.156 131.724 63.3194 131.875 63.5387 131.992C63.7627 132.109 64.0544 132.167 64.4137 132.167ZM74.1717 133C73.7237 133.089 73.2804 133.124 72.8417 133.105C72.4077 133.091 72.0204 133.005 71.6797 132.846C71.339 132.683 71.08 132.431 70.9027 132.09C70.7534 131.791 70.6717 131.49 70.6577 131.187C70.6484 130.879 70.6437 130.531 70.6437 130.144V123.34H71.8897V130.088C71.8897 130.396 71.892 130.66 71.8967 130.879C71.906 131.098 71.955 131.287 72.0437 131.446C72.2117 131.745 72.4777 131.92 72.8417 131.971C73.2104 132.022 73.6537 132.008 74.1717 131.929V133ZM69.1107 126.469V125.44H74.1717V126.469H69.1107ZM78.5766 133.196C78.0912 133.196 77.6736 133.119 77.3236 132.965C76.9782 132.811 76.6912 132.606 76.4626 132.349C76.2339 132.092 76.0542 131.808 75.9236 131.495C75.7929 131.182 75.6996 130.863 75.6436 130.536C75.5922 130.209 75.5666 129.904 75.5666 129.619V125.44H76.8266V129.227C76.8266 129.582 76.8592 129.925 76.9246 130.256C76.9899 130.587 77.0996 130.886 77.2536 131.152C77.4122 131.418 77.6222 131.628 77.8836 131.782C78.1496 131.936 78.4809 132.013 78.8776 132.013C79.1902 132.013 79.4749 131.959 79.7316 131.852C79.9882 131.745 80.2076 131.586 80.3896 131.376C80.5716 131.161 80.7116 130.891 80.8096 130.564C80.9076 130.237 80.9566 129.857 80.9566 129.423L81.7756 129.675C81.7756 130.403 81.6426 131.031 81.3766 131.558C81.1152 132.085 80.7442 132.491 80.2636 132.776C79.7876 133.056 79.2252 133.196 78.5766 133.196ZM81.0966 133V130.977H80.9566V125.44H82.2096V133H81.0966ZM84.1695 133V125.44H85.2825V127.267L85.1005 127.029C85.1891 126.796 85.3035 126.581 85.4435 126.385C85.5881 126.189 85.7491 126.028 85.9265 125.902C86.1225 125.743 86.3441 125.622 86.5915 125.538C86.8388 125.454 87.0908 125.405 87.3475 125.391C87.6041 125.372 87.8445 125.389 88.0685 125.44V126.609C87.8071 126.539 87.5201 126.52 87.2075 126.553C86.8948 126.586 86.6055 126.7 86.3395 126.896C86.0968 127.069 85.9078 127.279 85.7725 127.526C85.6418 127.773 85.5508 128.042 85.4995 128.331C85.4481 128.616 85.4225 128.907 85.4225 129.206V133H84.1695ZM92.5314 133.21C91.7894 133.21 91.1407 133.047 90.5854 132.72C90.0347 132.389 89.6054 131.929 89.2974 131.341C88.9894 130.748 88.8354 130.058 88.8354 129.269C88.8354 128.443 88.9871 127.729 89.2904 127.127C89.5937 126.52 90.0161 126.054 90.5574 125.727C91.1034 125.396 91.7427 125.23 92.4754 125.23C93.2361 125.23 93.8824 125.405 94.4144 125.755C94.9511 126.105 95.3524 126.604 95.6184 127.253C95.8891 127.902 96.0057 128.674 95.9684 129.57H94.7084V129.122C94.6944 128.193 94.5054 127.5 94.1414 127.043C93.7774 126.581 93.2361 126.35 92.5174 126.35C91.7474 126.35 91.1617 126.597 90.7604 127.092C90.3591 127.587 90.1584 128.296 90.1584 129.22C90.1584 130.111 90.3591 130.802 90.7604 131.292C91.1617 131.782 91.7334 132.027 92.4754 132.027C92.9747 132.027 93.4087 131.913 93.7774 131.684C94.1461 131.455 94.4354 131.126 94.6454 130.697L95.8424 131.11C95.5484 131.777 95.1051 132.295 94.5124 132.664C93.9244 133.028 93.2641 133.21 92.5314 133.21ZM89.7384 129.57V128.569H95.3244V129.57H89.7384Z" fill="black"/>
<path d="M15.745 159.196C15.2457 159.196 14.7813 159.105 14.352 158.923C13.9227 158.736 13.5517 158.475 13.239 158.139C12.931 157.798 12.7047 157.395 12.56 156.928L13.757 156.585C13.911 157.052 14.1677 157.406 14.527 157.649C14.8863 157.892 15.29 158.011 15.738 158.006C16.1487 157.997 16.5033 157.903 16.802 157.726C17.1053 157.544 17.3387 157.297 17.502 156.984C17.67 156.671 17.754 156.31 17.754 155.899C17.754 155.274 17.5673 154.767 17.194 154.38C16.8207 153.988 16.3307 153.792 15.724 153.792C15.556 153.792 15.3787 153.815 15.192 153.862C15.01 153.909 14.8397 153.974 14.681 154.058L14.079 153.071L17.817 149.69L17.978 150.11H12.959V148.92H18.902V150.117L15.717 153.169L15.703 152.728C16.3703 152.681 16.9537 152.791 17.453 153.057C17.9523 153.323 18.3397 153.703 18.615 154.198C18.895 154.693 19.035 155.26 19.035 155.899C19.035 156.543 18.8903 157.112 18.601 157.607C18.3117 158.102 17.9197 158.491 17.425 158.776C16.9303 159.056 16.3703 159.196 15.745 159.196ZM21.387 159L25.013 150.117H20.435V148.92H26.35V150.117L22.731 159H21.387ZM27.5595 159V157.628H28.9315V159H27.5595ZM30.8289 158.993L30.8359 157.873L35.3089 153.848C35.6822 153.512 35.9319 153.195 36.0579 152.896C36.1886 152.593 36.2539 152.282 36.2539 151.965C36.2539 151.578 36.1652 151.228 35.9879 150.915C35.8106 150.602 35.5679 150.355 35.2599 150.173C34.9566 149.991 34.6112 149.9 34.2239 149.9C33.8226 149.9 33.4656 149.996 33.1529 150.187C32.8402 150.374 32.5929 150.623 32.4109 150.936C32.2336 151.249 32.1472 151.589 32.1519 151.958H30.8779C30.8779 151.323 31.0249 150.763 31.3189 150.278C31.6129 149.788 32.0119 149.405 32.5159 149.13C33.0246 148.85 33.6009 148.71 34.2449 148.71C34.8702 148.71 35.4302 148.855 35.9249 149.144C36.4196 149.429 36.8092 149.818 37.0939 150.313C37.3832 150.803 37.5279 151.358 37.5279 151.979C37.5279 152.418 37.4719 152.798 37.3599 153.12C37.2526 153.442 37.0846 153.741 36.8559 154.016C36.6272 154.287 36.3402 154.576 35.9949 154.884L32.2779 158.223L32.1169 157.803H37.5279V158.993H30.8289ZM41.1627 153.75C40.7007 153.75 40.2783 153.638 39.8957 153.414C39.513 153.185 39.2073 152.882 38.9787 152.504C38.7547 152.121 38.6427 151.697 38.6427 151.23C38.6427 150.773 38.7593 150.353 38.9927 149.97C39.226 149.587 39.534 149.282 39.9167 149.053C40.2993 148.824 40.7147 148.71 41.1627 148.71C41.6247 148.71 42.0447 148.824 42.4227 149.053C42.8053 149.277 43.111 149.58 43.3397 149.963C43.5683 150.341 43.6827 150.763 43.6827 151.23C43.6827 151.697 43.5683 152.121 43.3397 152.504C43.111 152.882 42.8053 153.185 42.4227 153.414C42.0447 153.638 41.6247 153.75 41.1627 153.75ZM41.1627 152.651C41.4193 152.651 41.655 152.586 41.8697 152.455C42.089 152.324 42.2617 152.152 42.3877 151.937C42.5183 151.722 42.5837 151.487 42.5837 151.23C42.5837 150.973 42.5183 150.738 42.3877 150.523C42.2617 150.304 42.089 150.131 41.8697 150.005C41.655 149.874 41.4193 149.809 41.1627 149.809C40.906 149.809 40.6703 149.874 40.4557 150.005C40.241 150.131 40.0683 150.304 39.9377 150.523C39.807 150.738 39.7417 150.973 39.7417 151.23C39.7417 151.487 39.807 151.722 39.9377 151.937C40.0683 152.152 40.241 152.324 40.4557 152.455C40.6703 152.586 40.906 152.651 41.1627 152.651ZM49.6494 159.21C48.6461 159.21 47.7944 158.988 47.0944 158.545C46.3944 158.102 45.8601 157.486 45.4914 156.697C45.1274 155.908 44.9454 154.996 44.9454 153.96C44.9454 152.924 45.1274 152.012 45.4914 151.223C45.8601 150.434 46.3944 149.818 47.0944 149.375C47.7944 148.932 48.6461 148.71 49.6494 148.71C50.8161 148.71 51.7751 149.006 52.5264 149.599C53.2824 150.192 53.8027 150.99 54.0874 151.993L52.8204 152.329C52.6151 151.578 52.2487 150.985 51.7214 150.551C51.1941 150.117 50.5034 149.9 49.6494 149.9C48.8981 149.9 48.2727 150.07 47.7734 150.411C47.2741 150.752 46.8984 151.228 46.6464 151.839C46.3944 152.446 46.2661 153.153 46.2614 153.96C46.2567 154.763 46.3804 155.47 46.6324 156.081C46.8844 156.688 47.2624 157.164 47.7664 157.509C48.2704 157.85 48.8981 158.02 49.6494 158.02C50.5034 158.02 51.1941 157.803 51.7214 157.369C52.2487 156.93 52.6151 156.338 52.8204 155.591L54.0874 155.927C53.8027 156.926 53.2824 157.724 52.5264 158.321C51.7751 158.914 50.8161 159.21 49.6494 159.21Z" fill="black"/>
<path fill-rule="evenodd" clip-rule="evenodd" d="M139.157 153.711L133.5 159.368L132.086 157.954L137.036 153.004L132.086 148.054L133.5 146.64L139.157 152.297C139.344 152.485 139.45 152.739 139.45 153.004C139.45 153.269 139.344 153.523 139.157 153.711Z" fill="black"/>
<defs>
<linearGradient id="paint0_linear_239_693" x1="76.5" y1="0" x2="76.5" y2="182" gradientUnits="userSpaceOnUse">
<stop stop-color="#F38451"/>
<stop offset="1" stop-color="#EAC7B7"/>
</linearGradient>
</defs>
</svg>
