<svg width="412" height="917" viewBox="0 0 412 917" fill="none" xmlns="http://www.w3.org/2000/svg">
<g clip-path="url(#clip0_116_94)">
<rect width="412" height="917" fill="#4DA3A9"/>
<path d="M322.544 299.902C287.204 250.831 279.95 208.824 297.221 153.136L318.383 176.61C324.277 183.11 327.667 184.135 333.587 179.316L370.81 145.76C376.988 138.831 377.321 134.54 370.559 125.926L352.723 106.141C365.393 113.112 375.341 64.4759 404.694 10.0526C439.442 150.746 429.828 218.913 322.544 299.902Z" fill="white" fill-opacity="0.05"/>
<path d="M108.206 62.1404C153.362 102.362 194.394 113.918 251.569 102.495L230.408 79.0211C224.552 72.4869 223.883 69.0086 229.288 63.6184L266.511 30.0625C274.04 24.6338 278.344 24.7462 286.212 32.3619L304.048 52.1471C298.424 38.8239 347.828 33.9558 404.993 10.3841C268.644 -38.7176 199.848 -36.1991 108.206 62.1404Z" fill="white" fill-opacity="0.05"/>
<path d="M249.869 59.3537L263.496 47.0691C265.388 45.3629 267.594 44.5751 270.113 44.7056C272.633 44.8361 274.745 45.8477 276.451 47.7404L303.068 77.2657L332.594 50.6491C334.486 48.9429 336.692 48.155 339.211 48.2855C341.73 48.4161 343.843 49.4277 345.549 51.3203L357.834 64.9474C359.54 66.8401 360.328 69.046 360.198 71.5652C360.067 74.0844 359.055 76.1971 357.163 77.9033L327.637 104.52L354.254 134.045C355.96 135.938 356.748 138.144 356.618 140.663C356.487 143.182 355.475 145.295 353.583 147.001L339.956 159.286C338.063 160.992 335.857 161.78 333.338 161.649C330.819 161.519 328.706 160.507 327 158.615L300.383 129.089L270.858 155.706C268.965 157.412 266.759 158.2 264.24 158.069C261.721 157.939 259.608 156.927 257.902 155.035L245.617 141.407C243.911 139.515 243.123 137.309 243.254 134.79C243.384 132.271 244.396 130.158 246.289 128.452L275.814 101.835L249.197 72.3096C247.491 70.4169 246.703 68.211 246.834 65.6918C246.964 63.1726 247.976 61.0599 249.869 59.3537Z" fill="white" fill-opacity="0.05"/>
<path d="M40.6742 228.338C76.0142 277.408 83.2681 319.415 65.9973 375.104L44.8359 351.63C38.9418 345.13 35.5514 344.105 29.6314 348.924L-7.59161 382.48C-13.7693 389.408 -14.1022 393.7 -7.34046 402.313L10.4956 422.098C-2.17503 415.128 -12.1226 463.764 -41.4757 518.187C-76.2238 377.493 -66.6094 309.327 40.6742 228.338Z" fill="white" fill-opacity="0.05"/>
<path d="M255.013 466.099C209.857 425.877 168.824 414.321 111.649 425.745L132.81 449.218C138.667 455.753 139.336 459.231 133.931 464.621L96.7075 498.177C89.178 503.606 84.8748 503.493 77.0065 495.878L59.1704 476.092C64.7943 489.416 15.3908 494.284 -41.7744 517.856C94.5749 566.957 163.37 564.439 255.013 466.099Z" fill="white" fill-opacity="0.05"/>
<path d="M113.35 468.886L99.7228 481.17C97.8302 482.877 95.6243 483.664 93.1051 483.534C90.5859 483.403 88.4732 482.392 86.767 480.499L60.1503 450.974L30.6249 477.59C28.7323 479.297 26.5263 480.085 24.0071 479.954C21.488 479.823 19.3753 478.812 17.6691 476.919L5.38445 463.292C3.67825 461.4 2.89041 459.194 3.02092 456.674C3.15145 454.155 4.16303 452.042 6.05569 450.336L35.5811 423.72L8.9644 394.194C7.2582 392.302 6.47036 390.096 6.60088 387.576C6.7314 385.057 7.74299 382.945 9.63564 381.238L23.2627 368.954C25.1554 367.248 27.3613 366.46 29.8805 366.59C32.3997 366.721 34.5124 367.732 36.2186 369.625L62.8353 399.15L92.3607 372.534C94.2533 370.828 96.4592 370.04 98.9784 370.17C101.498 370.301 103.61 371.312 105.317 373.205L117.601 386.832C119.307 388.725 120.095 390.931 119.965 393.45C119.834 395.969 118.823 398.082 116.93 399.788L87.4045 426.405L114.021 455.93C115.727 457.823 116.515 460.029 116.385 462.548C116.254 465.067 115.243 467.18 113.35 468.886Z" fill="white" fill-opacity="0.05"/>
<path d="M125.337 740.674C174.408 776.014 216.415 783.268 272.104 765.997L248.63 744.836C242.13 738.942 241.105 735.551 245.924 729.631L279.48 692.408C286.408 686.231 290.7 685.898 299.313 692.66L319.098 710.496C312.128 697.825 360.764 687.877 415.187 658.524C274.493 623.776 206.327 633.391 125.337 740.674Z" fill="white" fill-opacity="0.05"/>
<path d="M363.099 955.013C322.877 909.857 311.321 868.824 322.745 811.649L346.218 832.81C352.753 838.667 356.231 839.336 361.621 833.93L395.177 796.707C400.606 789.178 400.493 784.875 392.878 777.006L373.092 759.17C386.416 764.794 391.284 715.391 414.856 658.225C463.957 794.575 461.439 863.37 363.099 955.013Z" fill="white" fill-opacity="0.05"/>
<path d="M365.886 813.35L378.17 799.723C379.877 797.83 380.664 795.624 380.534 793.105C380.403 790.586 379.392 788.473 377.499 786.767L347.974 760.15L374.59 730.625C376.297 728.732 377.085 726.526 376.954 724.007C376.823 721.488 375.812 719.375 373.919 717.669L360.292 705.384C358.4 703.678 356.194 702.89 353.674 703.021C351.155 703.151 349.042 704.163 347.336 706.056L320.72 735.581L291.194 708.964C289.302 707.258 287.096 706.47 284.576 706.601C282.057 706.731 279.945 707.743 278.238 709.636L265.954 723.263C264.248 725.155 263.46 727.361 263.59 729.88C263.721 732.4 264.732 734.512 266.625 736.219L296.15 762.835L269.534 792.361C267.828 794.253 267.04 796.459 267.17 798.978C267.301 801.498 268.312 803.61 270.205 805.316L283.832 817.601C285.725 819.307 287.931 820.095 290.45 819.965C292.969 819.834 295.082 818.822 296.788 816.93L323.405 787.404L352.93 814.021C354.823 815.727 357.029 816.515 359.548 816.385C362.067 816.254 364.18 815.243 365.886 813.35Z" fill="white" fill-opacity="0.05"/>
</g>
<defs>
<clipPath id="clip0_116_94">
<rect width="412" height="917" fill="white"/>
</clipPath>
</defs>
</svg>
