<svg width="129" height="84" viewBox="0 0 129 84" fill="none" xmlns="http://www.w3.org/2000/svg">
<path d="M11.7273 56.0089H3.90909C2.87234 56.0089 1.87804 56.5006 1.14495 57.3759C0.411849 58.2513 0 59.4384 0 60.6763V83.976H15.6364V60.6763C15.6364 59.4384 15.2245 58.2513 14.4914 57.3759C13.7583 56.5006 12.764 56.0089 11.7273 56.0089Z" fill="#8BF9FF"/>
<path d="M35.1818 28.0044H27.3636C26.3269 28.0044 25.3326 28.4962 24.5995 29.3715C23.8664 30.2468 23.4545 31.434 23.4545 32.6719V83.976H39.0909V32.6719C39.0909 31.434 38.6791 30.2468 37.946 29.3715C37.2129 28.4962 36.2186 28.0044 35.1818 28.0044Z" fill="#3FF5FF"/>
<path d="M58.6364 0H50.8182C49.7814 0 48.7871 0.491743 48.054 1.36705C47.3209 2.24236 46.9091 3.42953 46.9091 4.66741V83.976H62.5455V4.66741C62.5455 3.42953 62.1336 2.24236 61.4005 1.36705C60.6674 0.491743 59.6731 0 58.6364 0Z" fill="#00DBE6"/>
<path d="M78.1817 56.0089H70.3636C69.3268 56.0089 68.3325 56.5006 67.5994 57.3759C66.8663 58.2513 66.4545 59.4384 66.4545 60.6763V83.976H82.0908V60.6763C82.0908 59.4384 81.679 58.2513 80.9459 57.3759C80.2128 56.5006 79.2185 56.0089 78.1817 56.0089Z" fill="#00BAC4"/>
<path d="M101.636 28.0044H93.8181C92.7813 28.0044 91.7871 28.4962 91.054 29.3715C90.3209 30.2468 89.909 31.434 89.909 32.6719V83.976H105.545V32.6719C105.545 31.434 105.134 30.2468 104.4 29.3715C103.667 28.4962 102.673 28.0044 101.636 28.0044Z" fill="#00DBE6"/>
<path d="M125.091 0H117.273C116.236 0 115.242 0.491743 114.509 1.36705C113.775 2.24236 113.364 3.42953 113.364 4.66741V83.976H129V4.66741C129 3.42953 128.588 2.24236 127.855 1.36705C127.122 0.491743 126.128 0 125.091 0Z" fill="#3FF5FF"/>
</svg>
