<svg width="412" height="242" viewBox="0 0 412 242" fill="none" xmlns="http://www.w3.org/2000/svg">
<g clip-path="url(#clip0_191_1051)">
<path d="M0 0H412V217C412 230.807 400.807 242 387 242H25C11.1929 242 0 230.807 0 217V0Z" fill="#007B83" fill-opacity="0.7"/>
<path d="M320.544 290.902C285.204 241.831 277.95 199.824 295.221 144.136L316.383 167.61C322.277 174.11 325.667 175.135 331.587 170.316L368.81 136.76C374.988 129.831 375.321 125.54 368.559 116.926L350.723 97.1411C363.393 104.112 373.341 55.4759 402.694 1.05265C437.442 141.746 427.828 209.913 320.544 290.902Z" fill="white" fill-opacity="0.1"/>
<path d="M106.206 53.1404C151.361 93.3622 192.394 104.918 249.569 93.495L228.408 70.0211C222.552 63.4869 221.883 60.0086 227.288 54.6184L264.511 21.0624C272.04 15.6338 276.344 15.7462 284.212 23.3619L302.048 43.1471C296.424 29.8239 345.828 24.9558 402.993 1.38404C266.643 -47.7176 197.848 -45.1992 106.206 53.1404Z" fill="white" fill-opacity="0.1"/>
<path d="M247.869 50.3537L261.496 38.0691C263.388 36.3629 265.594 35.5751 268.113 35.7056C270.633 35.8361 272.745 36.8477 274.451 38.7404L301.068 68.2657L330.594 41.6491C332.486 39.9429 334.692 39.155 337.211 39.2855C339.73 39.4161 341.843 40.4277 343.549 42.3203L355.834 55.9474C357.54 57.8401 358.328 60.046 358.198 62.5652C358.067 65.0844 357.055 67.1971 355.163 68.9033L325.637 95.5199L352.254 125.045C353.96 126.938 354.748 129.144 354.618 131.663C354.487 134.182 353.475 136.295 351.583 138.001L337.956 150.286C336.063 151.992 333.857 152.78 331.338 152.649C328.819 152.519 326.706 151.507 325 149.615L298.383 120.089L268.858 146.706C266.965 148.412 264.759 149.2 262.24 149.069C259.721 148.939 257.608 147.927 255.902 146.035L243.617 132.407C241.911 130.515 241.123 128.309 241.254 125.79C241.384 123.271 242.396 121.158 244.289 119.452L273.814 92.835L247.197 63.3096C245.491 61.4169 244.703 59.211 244.834 56.6918C244.964 54.1726 245.976 52.0599 247.869 50.3537Z" fill="white" fill-opacity="0.1"/>
</g>
<defs>
<clipPath id="clip0_191_1051">
<path d="M0 0H412V217C412 230.807 400.807 242 387 242H25C11.1929 242 0 230.807 0 217V0Z" fill="white"/>
</clipPath>
</defs>
</svg>
