<svg width="89" height="71" viewBox="0 0 89 71" fill="none" xmlns="http://www.w3.org/2000/svg">
<path fill-rule="evenodd" clip-rule="evenodd" d="M55.2957 14.0326L61.0718 33.7149C61.7494 36.0254 63.1551 38.0539 65.0786 39.497C67.0022 40.9401 69.3401 41.7203 71.7429 41.7208H84.55C85.7302 41.7208 86.8621 41.2509 87.6966 40.4145C88.5312 39.578 89 38.4436 89 37.2607C89 36.0778 88.5312 34.9434 87.6966 34.107C86.8621 33.2705 85.7302 32.8006 84.55 32.8006H71.7429C71.262 32.8009 70.794 32.6451 70.409 32.3564C70.0239 32.0678 69.7425 31.6618 69.6069 31.1995L61.8639 4.80473C60.0305 -1.45276 51.264 -1.649 49.1458 4.51482L30.8385 57.9109L23.6161 39.8119C22.7902 37.7411 21.3637 35.9662 19.521 34.7163C17.6782 33.4665 15.5038 32.7992 13.2788 32.8006H4.45C3.26979 32.8006 2.13791 33.2705 1.30337 34.107C0.468838 34.9434 0 36.0778 0 37.2607C0 38.4436 0.468838 39.578 1.30337 40.4145C2.13791 41.2509 3.26979 41.7208 4.45 41.7208H13.2788C13.7239 41.72 14.159 41.853 14.5279 42.1027C14.8968 42.3523 15.1825 42.7071 15.348 43.1213L24.7954 66.7953C27.0916 72.5533 35.2974 72.3481 37.3044 66.4831L55.2957 14.0326Z" fill="white"/>
</svg>
